<svg width="1024" height="1024" version="1.1" xmlns="http://www.w3.org/2000/svg" desc="Created with imagetracer.js version 1.2.6" ><path fill="rgb(241,252,243)" stroke="rgb(241,252,243)" stroke-width="1" opacity="0.11372549019607843" d="M 507 141 L 518.5 141 Q 517.9 143.8 521 143 L 521 147 L 523 147 L 523 152.5 L 525 153 L 525 158.5 Q 528 157.5 527 162.5 Q 530.3 164 529 169 L 531 169 Q 529.3 174.2 533 173 L 533 178.5 Q 536.3 177.5 535 183.5 Q 538 184.8 537 189 L 539 189 L 539 195 L 541 195 Q 539.3 200.2 543 199 L 543 204.5 Q 546 203.5 545 208.5 Q 548.3 210 547 215 L 549 215 Q 547.8 220.3 551 219.5 L 551 225 L 553 225 L 555 229 L 566.5 229 L 567.5 231 L 575.5 231 L 577.5 233 L 585 233 L 585 235 L 592.5 235 L 593.5 237 L 600.5 237 L 601 239 L 607 239 L 607 241 Q 612.2 239.3 611 243 L 617 243 L 617 245 L 623 245 L 623 247 Q 628.3 245.8 627.5 249 L 630.5 249 Q 632 252.3 637 251 L 637 253 L 641 253 L 641 255 Q 646.3 253.8 645.5 257 L 649 257 L 651 261 L 654.5 261 Q 653.7 264.3 659 263 L 661 267 L 665 267 L 667 271 L 670.5 271 Q 669.7 274.3 675 273 L 677 277 L 681 277 L 681 279 L 683 279 L 683 281 L 685 281 L 687 285 L 691 285 L 691 287 L 693 287 L 693 289 L 695 289 L 697 293 L 699.5 293 L 703 295 L 703 297 L 705 297 L 705 299 L 707 299 L 707 301 L 709 301 L 709 303 L 711 303 L 711 305 L 713 305 L 713 307 L 715 307 L 715 309 L 717 309 L 717 311 L 719 311 L 719 313 L 721 313 L 721 315 L 723 315 L 723 317 L 725 317 L 725 319 L 727 319 L 727 321 Q 729.7 319.9 729 322.5 Q 731.8 323.6 731 327 L 733 327 L 733 329 L 735 329 L 735 331 Q 737.7 329.9 737 332.5 Q 739.8 333.6 739 337 L 741 337 L 741 339 L 745 341 L 745 345 L 749 347 L 749 349.5 L 751 353 Q 754.7 351.8 753 357 L 757 359 L 757 363 L 759 363 L 759 366.5 Q 762.3 365.7 761 371 L 765 373 Q 763.8 378.3 767 377.5 L 767 380.5 L 773 390.5 L 773 395 Q 776.3 393.7 775 398.5 Q 778.3 400 777 405 Q 780.7 403.6 779 409.5 Q 782 410.8 781 415 Q 784.5 413.9 783 421.5 Q 786.5 423.2 785 429 Q 789 427.6 787 434.5 L 789 436.5 L 789 444.5 L 791 446.5 L 791 454.5 Q 794.8 456.4 793 463 L 795 463 L 797 467 L 801.5 467 L 808.5 471 L 813 471 Q 811.6 474.7 817.5 473 Q 818.8 476 823 475 L 823 477 L 828.5 477 Q 827.5 480.3 833.5 479 Q 834.8 482 839 481 L 839 483 L 844.5 483 Q 843.5 486 848.5 485 Q 850 488.3 855 487 Q 853.7 490.3 858.5 489 Q 859.9 492.3 865 491 Q 863.6 494.7 869.5 493 Q 870.8 496 875 495 L 875 497 L 879 497 L 879 499 Q 881.7 497.9 881 500.5 Q 884.8 502.4 883 509 L 881 509 L 879 513 L 875 513 L 875 515 Q 869.7 513.8 870.5 517 L 867.5 517 Q 866 520.3 861 519 L 861 521 L 855.5 521 Q 856.3 524.3 851 523 L 851 525 L 846.5 525 Q 845.3 528 841 527 Q 842.3 530.3 837.5 529 Q 836 532.3 831 531 L 831 533 Q 825.8 531.3 827 535 L 821 535 L 821 537 Q 815.8 535.3 817 539 L 811 539 L 811 541 Q 805.7 539.8 806.5 543 L 803.5 543 Q 802 546.3 797 545 L 797 547 L 793 549 L 793 555.5 L 791 557.5 Q 792.8 564.8 789 566.5 L 789 575 Q 785.5 573.9 787 581.5 L 785 583.5 L 785 588.5 L 783 590.5 L 783 595.5 Q 780 596.8 781 601 L 779 601 L 779 606.5 Q 775.8 605.5 777 611.5 Q 774 612.8 775 617 L 773 617 Q 774.7 622.2 771 621 L 771 625.5 Q 768 626.8 769 631 L 767 631 L 767 635 L 765 635 L 765 639 Q 762 637.8 763 641.5 L 761 645 Q 757.3 643.8 759 649 L 755 651 L 755 655 L 753 655 L 753 659 Q 750.3 657.9 751 660.5 Q 748.3 661.6 749 665 L 745 667 L 745 671 L 741 673 L 741 677 L 739 677 L 739 679 L 735 681 L 735 685 L 733 685 L 733 687 L 731 687 L 731 689 L 729 689 L 729 691 Q 726.3 689.9 727 692.5 L 721 701 L 719 701 L 719 703 L 717 703 L 717 705 L 715 705 L 715 707 L 713 707 L 713 709 L 711 709 L 711 711 L 709 711 Q 710.1 713.7 707.5 713 Q 706.4 715.8 703 715 L 703 717 L 701 717 L 701 719 L 699 719 L 699 721 L 697 721 L 697 723 L 695 723 L 693 727 L 690.5 727 L 687 729 L 687 731 L 685 731 Q 686.1 733.7 683.5 733 Q 682.4 735.8 679 735 L 677 739 L 673 739 L 671 743 L 667 743 Q 668.1 745.7 665.5 745 Q 664.4 747.7 661 747 Q 662.1 749.7 659.5 749 Q 658.4 751.7 655 751 L 655 753 L 651 753 L 651 755 L 647 755 Q 648.1 757.7 645.5 757 L 639.5 761 L 631 763 L 631 765 Q 625.7 763.8 626.5 767 L 623.5 767 Q 622 770.3 617 769 L 617 771 L 611.5 771 Q 612.5 774 607.5 773 Q 606.1 776.3 601 775 L 601 777 L 595 777 L 594.5 779 L 587.5 779 Q 585.6 782.8 579 781 L 578.5 783 L 571.5 783 L 569.5 785 L 561.5 785 Q 560.1 788.3 555 787 L 555 789 L 551 791 L 551 796.5 Q 547.8 795.5 549 801.5 Q 546 802.8 547 807 L 545 807 L 545 812.5 Q 541.8 811.5 543 817.5 Q 540 818.8 541 823 Q 537.7 821.7 539 826.5 Q 535.8 828 537 833 Q 533.3 831.6 535 837.5 Q 532 838.8 533 843 Q 529.3 841.6 531 847.5 Q 528 848.8 529 853 L 527 853 L 527 859 L 525 859 Q 526.7 864.2 523 863 L 523 868.5 Q 519.8 867.7 521 873 Q 517.9 872.3 518.5 875 L 509 875 L 509 873 L 505 871 L 505 865.5 Q 502 866.5 503 861.5 Q 499.8 860.1 501 855 Q 497.3 856.4 499 850.5 Q 496 849.3 497 845 Q 493.3 846.4 495 840.5 Q 492 839.3 493 835 L 491 835 L 491 829 L 489 829 Q 490.7 823.8 487 825 L 487 819 L 485 819 Q 486.7 813.8 483 815 L 483 809.5 Q 479.8 810.3 481 805 L 479 805 L 479 800.5 Q 475.5 798.8 477 793 L 475 793 L 475 789 Q 472 790 473 787 L 469 787 L 469 785 L 458.5 785 L 456.5 783 L 447 783 L 447 781 L 439.5 781 Q 440.5 777.7 434.5 779 Q 432.8 775.5 427 777 Q 428.4 773 421.5 775 Q 420.1 771.8 415 773 Q 416.4 769.3 410.5 771 Q 409.3 768 405 769 L 405 767 L 399 767 L 399 765 L 395 765 L 395 763 L 391 763 L 391 761 L 387 761 L 387 759 L 383 759 L 383 757 L 379 757 L 379 755 L 375 755 Q 376.3 752 372.5 753 L 369 751 L 369 749 L 365 749 L 365 747 L 361 747 L 359 743 L 356.5 743 L 353 741 L 351 737 L 347 737 Q 348.1 734.3 345.5 735 Q 344.4 732.3 341 733 L 341 731 L 339 731 L 337 727 L 334.5 727 L 331 725 L 331 723 L 329 723 L 329 721 L 327 721 L 327 719 L 325 719 L 323 715 L 320.5 715 L 317 713 L 317 711 L 315 711 L 315 709 L 313 709 L 313 707 L 311 707 L 311 705 L 309 705 L 309 703 L 307 703 L 307 701 Q 304.3 702.1 305 699.5 L 301 693 L 299 693 L 299 691 L 297 691 L 297 689 L 295 689 L 295 687 Q 292.3 688.1 293 685.5 Q 290.3 684.4 291 681 L 289 681 L 289 679 L 287 679 L 287 677 L 283 675 L 283 671 L 279 669 L 279 665 L 275 663 L 275 659 Q 272.3 660.1 273 657.5 Q 270.3 656.4 271 653 Q 267.3 654.2 269 649 L 265 647 L 265 643 L 263 643 L 263 639 L 261 639 L 261 635 L 259 635 L 259 631 L 257 631 L 257 627 L 255 627 Q 256.2 621.7 253 622.5 L 253 619.5 Q 249.7 618.1 251 613 Q 247.7 614.3 249 609.5 Q 245.8 608 247 603 L 245 603 L 245 597 L 243 596.5 L 243 590.5 Q 239.5 588.8 241 583 Q 237.5 584.1 239 576.5 L 237 574.5 L 237 566.5 L 235 564.5 L 235 554.5 Q 232 553.3 233 549 L 231 549 L 229 545 L 225.5 545 Q 224.1 541.8 219 543 Q 220.3 539.7 215.5 541 Q 214 537.8 209 539 L 209 537 Q 203.8 538.7 205 535 L 200.5 535 Q 199.3 532 195 533 L 195 531 Q 189.8 532.7 191 529 L 185.5 529 Q 186.3 525.8 181 527 L 181 525 L 176.5 525 Q 175.3 522 171 523 Q 172.3 519.7 167.5 521 Q 166.1 517.8 161 519 L 161 517 Q 155.8 518.7 157 515 L 151.5 515 Q 152.3 511.8 147 513 Q 148 510 145 511 L 145 507.5 L 144 504.5 L 145 499 Q 148 500 147 497 L 151 497 L 151 495 L 157 495 L 157 493 L 161 493 L 161 491 Q 166.2 492.7 165 489 L 170.5 489 L 171 487 L 176.5 487 Q 175.5 484 180.5 485 Q 181.9 481.8 187 483 L 187 481 Q 192.2 482.7 191 479 L 197 479 L 197 477 L 203 477 L 203 475 Q 208.2 476.7 207 473 L 212.5 473 L 213 471 L 218.5 471 L 219 469 L 224.5 469 Q 223.7 465.7 229 467 L 229 465 L 233 463 L 233 459 L 235 459 L 235 449.5 L 237 447.5 L 237 439 L 239 439 L 239 431.5 L 241 430.5 L 241 423.5 L 243 423 L 243 417.5 L 245 417 L 245 411.5 Q 248 412.5 247 407.5 Q 250.2 406.1 249 401 Q 252.7 402.4 251 396.5 Q 254 395.3 253 391 L 255 391 Q 253.8 385.7 257 386.5 L 257 383.5 Q 259.8 382.4 259 379 L 261 379 L 261 375 L 263 375 L 263 371 L 265 371 L 265 367 Q 267.7 368.1 267 365.5 Q 269.8 364.4 269 361 L 271 361 L 271 357 L 275 355 L 275 351 L 279 349 L 279 345 L 283 343 L 283 339 L 285 339 L 285 337 L 289 335 L 289 332.5 L 291 329 L 293 329 L 293 327 L 295 327 L 295 325 L 297 325 L 297 323 L 301 321 L 301 318.5 L 303 315 L 305 315 L 305 313 L 307 313 L 307 311 L 309 311 L 309 309 L 311 309 L 311 307 L 313 307 L 313 305 L 315 305 L 315 303 L 317 303 L 317 301 L 319 301 L 319 299 L 321 299 L 323 295 L 327 295 L 327 293 L 329 293 L 329 291 L 331 291 L 331 289 L 333 289 Q 331.9 286.3 334.5 287 Q 335.6 284.3 339 285 L 339 283 L 341 283 L 343 279 L 347 279 L 347 277 L 349 277 Q 347.9 274.3 350.5 275 Q 351.6 272.2 355 273 Q 353.9 270.3 356.5 271 Q 357.6 268.3 361 269 Q 359.9 266.3 362.5 267 Q 363.6 264.3 367 265 L 367 263 L 371 263 Q 369.8 260 373.5 261 L 377 259 L 377 257 L 381 257 L 381 255 Q 386.3 256.2 385.5 253 L 388.5 253 Q 389.9 249.7 395 251 L 395 249 L 399 249 L 399 247 Q 404.2 248.7 403 245 L 409 245 L 409 243 Q 414.2 244.7 413 241 L 419 241 L 419.5 239 L 426.5 239 L 427 237 L 433 237 L 433 235 L 439 235 L 439.5 233 L 446.5 233 L 448.5 231 L 459 231 L 459.5 229 L 468.5 229 Q 469.6 226.2 473 227 Q 472 224 475 225 L 475 221 L 477 221 L 477 215.5 L 479 215 L 479 209 L 481 209 Q 479.3 203.8 483 205 L 483 199 L 485 199 Q 483.3 193.8 487 195 L 487 189 L 489 189 Q 487.3 183.8 491 185 L 491 179.5 Q 494.3 180.5 493 174.5 Q 496 173.3 495 169 Q 498.7 170.3 497 164.5 Q 500 163.3 499 159 L 501 159 Q 499.3 153.8 503 155 L 503 149 L 505 149 L 505 143.5 Q 507.8 144.1 507 141 Z M 511 142 L 506 148 L 506 152 L 500 163 L 496 176 L 494 178 L 494 182 L 492 184 L 492 187 L 490 189 L 490 192 L 488 194 L 488 197 L 486 199 L 486 202 L 484 204 L 476 226 L 472 230 Q 464 229 462 232 L 455 232 L 452 234 L 444 234 Q 442 237 437 236 L 435 238 L 431 238 L 429 240 Q 423 239 422 242 L 417 242 L 406 248 L 398 250 L 392 254 Q 387 253 388 256 Q 384 255 383 258 Q 379 257 380 260 Q 373 261 369 266 Q 365 265 366 268 L 362 270 Q 359 269 360 272 L 357 274 Q 353 273 354 276 L 348 280 Q 345 279 346 282 L 340 286 Q 337 285 338 288 L 330 294 Q 327 293 328 296 L 326 296 L 326 298 L 319 303 L 306 317 Q 307 319 304 318 L 304 320 L 302 320 L 294 331 Q 295 333 292 332 L 292 334 L 290 334 L 286 341 Q 287 343 284 342 L 278 352 Q 279 355 276 354 L 274 358 Q 275 361 272 360 L 272 363 L 258 386 L 256 393 L 254 395 L 254 398 L 252 400 L 252 403 L 250 405 L 248 414 L 246 416 L 246 419 L 244 421 L 244 426 L 242 428 Q 243 434 240 436 L 240 442 L 238 445 L 238 452 L 236 454 L 236 462 L 234 464 L 234 466 Q 231 465 232 468 Q 228 467 227 470 L 223 470 L 216 474 L 212 474 L 200 480 L 196 480 L 184 486 L 181 486 L 179 488 L 176 488 L 174 490 L 170 490 L 168 492 Q 163 491 164 494 L 161 494 L 151 498 L 146 503 L 146 508 L 150 511 L 170 518 L 232 544 L 236 552 L 236 560 Q 239 562 238 570 L 240 573 L 240 579 Q 243 580 242 586 L 244 588 L 246 599 L 252 611 L 256 624 L 268 647 L 278 661 L 278 663 L 299 690 L 340 728 L 360 742 L 384 756 Q 404 767 428 774 L 454 781 L 473 784 L 478 792 L 480 801 L 484 808 L 484 811 L 486 813 L 486 816 L 488 818 L 488 821 L 490 823 L 490 826 L 492 828 L 492 831 L 494 833 L 494 836 L 500 851 L 502 853 L 504 862 L 508 870 Q 509 873 516 872 L 521 865 L 521 862 L 537 824 L 537 821 L 539 819 L 539 816 L 551 785 L 557 783 L 574 781 L 577 779 L 596 775 L 632 761 L 655 749 L 686 728 L 699 717 Q 718 700 734 680 L 749 659 L 749 657 L 763 635 L 777 603 L 781 588 L 783 585 L 791 545 L 879 509 L 880 503 L 876 498 L 794 467 L 790 462 L 787 442 L 781 420 L 766 383 L 749 353 L 719 315 L 707 302 L 683 282 L 645 258 L 626 250 L 624 248 L 621 248 L 619 246 L 610 244 L 608 242 L 599 240 L 596 238 L 583 236 L 580 234 L 574 234 L 571 232 L 564 232 L 561 230 L 554 230 L 550 228 L 517 143 L 511 142 Z " /><path fill="rgb(0,0,0)" stroke="rgb(0,0,0)" stroke-width="1" opacity="0" d="M 0 0 L 1024 0 L 1024 1024 L 0 1024 L 0 0 Z M 507 141 Q 508 144 505 144 L 505 149 L 503 149 L 503 155 Q 499 154 501 159 L 499 159 Q 500 163 497 165 Q 499 170 495 169 Q 496 173 493 175 Q 494 180 491 180 L 491 185 Q 487 184 489 189 L 487 189 L 487 195 Q 483 194 485 199 L 483 199 L 483 205 Q 479 204 481 209 L 479 209 L 479 215 L 477 216 L 477 221 L 475 221 L 475 225 Q 472 224 473 227 Q 470 226 469 229 L 460 229 L 459 231 L 449 231 L 447 233 L 440 233 L 439 235 L 433 235 L 433 237 L 427 237 L 427 239 L 420 239 L 419 241 L 413 241 Q 414 245 409 243 L 409 245 L 403 245 Q 404 249 399 247 L 399 249 L 395 249 L 395 251 Q 390 250 389 253 L 386 253 Q 386 256 381 255 L 381 257 L 377 257 L 377 259 L 374 261 Q 370 260 371 263 L 367 263 L 367 265 Q 364 264 363 267 Q 360 266 361 269 Q 358 268 357 271 Q 354 270 355 273 Q 352 272 351 275 Q 348 274 349 277 L 347 277 L 347 279 L 343 279 L 341 283 L 339 283 L 339 285 Q 336 284 335 287 Q 332 286 333 289 L 331 289 L 331 291 L 329 291 L 329 293 L 327 293 L 327 295 L 323 295 L 321 299 L 319 299 L 319 301 L 317 301 L 317 303 L 315 303 L 315 305 L 313 305 L 313 307 L 311 307 L 311 309 L 309 309 L 309 311 L 307 311 L 307 313 L 305 313 L 305 315 L 303 315 L 301 319 L 301 321 L 297 323 L 297 325 L 295 325 L 295 327 L 293 327 L 293 329 L 291 329 L 289 333 L 289 335 L 285 337 L 285 339 L 283 339 L 283 343 L 279 345 L 279 349 L 275 351 L 275 355 L 271 357 L 271 361 L 269 361 Q 270 364 267 366 Q 268 368 265 367 L 265 371 L 263 371 L 263 375 L 261 375 L 261 379 L 259 379 Q 260 382 257 384 L 257 387 Q 254 386 255 391 L 253 391 Q 254 395 251 397 Q 253 402 249 401 Q 250 406 247 408 Q 248 413 245 412 L 245 417 L 243 418 L 243 423 L 241 424 L 241 431 L 239 432 L 239 439 L 237 439 L 237 448 L 235 450 L 235 459 L 233 459 L 233 463 L 229 465 L 229 467 Q 224 466 225 469 L 219 469 L 219 471 L 213 471 L 213 473 L 207 473 Q 208 477 203 475 L 203 477 L 197 477 L 197 479 L 191 479 Q 192 483 187 481 L 187 483 Q 182 482 181 485 Q 176 484 177 487 L 171 487 L 171 489 L 165 489 Q 166 493 161 491 L 161 493 L 157 493 L 157 495 L 151 495 L 151 497 L 147 497 Q 148 500 145 499 L 144 505 L 145 508 L 145 511 Q 148 510 147 513 Q 152 512 152 515 L 157 515 Q 156 519 161 517 L 161 519 Q 166 518 168 521 Q 172 520 171 523 Q 175 522 177 525 L 181 525 L 181 527 Q 186 526 186 529 L 191 529 Q 190 533 195 531 L 195 533 Q 199 532 201 535 L 205 535 Q 204 539 209 537 L 209 539 Q 214 538 216 541 Q 220 540 219 543 Q 224 542 226 545 L 229 545 L 231 549 L 233 549 Q 232 553 235 555 L 235 565 L 237 567 L 237 575 L 239 577 Q 238 584 241 583 Q 240 589 243 591 L 243 597 L 245 597 L 245 603 L 247 603 Q 246 608 249 610 Q 248 614 251 613 Q 250 618 253 620 L 253 623 Q 256 622 255 627 L 257 627 L 257 631 L 259 631 L 259 635 L 261 635 L 261 639 L 263 639 L 263 643 L 265 643 L 265 647 L 269 649 Q 267 654 271 653 Q 270 656 273 658 Q 272 660 275 659 L 275 663 L 279 665 L 279 669 L 283 671 L 283 675 L 287 677 L 287 679 L 289 679 L 289 681 L 291 681 Q 290 684 293 686 Q 292 688 295 687 L 295 689 L 297 689 L 297 691 L 299 691 L 299 693 L 301 693 L 305 700 Q 304 702 307 701 L 307 703 L 309 703 L 309 705 L 311 705 L 311 707 L 313 707 L 313 709 L 315 709 L 315 711 L 317 711 L 317 713 L 321 715 L 323 715 L 325 719 L 327 719 L 327 721 L 329 721 L 329 723 L 331 723 L 331 725 L 335 727 L 337 727 L 339 731 L 341 731 L 341 733 Q 344 732 346 735 Q 348 734 347 737 L 351 737 L 353 741 L 357 743 L 359 743 L 361 747 L 365 747 L 365 749 L 369 749 L 369 751 L 373 753 Q 376 752 375 755 L 379 755 L 379 757 L 383 757 L 383 759 L 387 759 L 387 761 L 391 761 L 391 763 L 395 763 L 395 765 L 399 765 L 399 767 L 405 767 L 405 769 Q 409 768 411 771 Q 416 769 415 773 Q 420 772 422 775 Q 428 773 427 777 Q 433 776 435 779 Q 440 778 440 781 L 447 781 L 447 783 L 457 783 L 459 785 L 469 785 L 469 787 L 473 787 Q 472 790 475 789 L 475 793 L 477 793 Q 476 799 479 801 L 479 805 L 481 805 Q 480 810 483 810 L 483 815 Q 487 814 485 819 L 487 819 L 487 825 Q 491 824 489 829 L 491 829 L 491 835 L 493 835 Q 492 839 495 841 Q 493 846 497 845 Q 496 849 499 851 Q 497 856 501 855 Q 500 860 503 862 Q 502 867 505 866 L 505 871 L 509 873 L 509 875 L 519 875 Q 518 872 521 873 Q 520 868 523 869 L 523 863 Q 527 864 525 859 L 527 859 L 527 853 L 529 853 Q 528 849 531 848 Q 529 842 533 843 Q 532 839 535 838 Q 533 832 537 833 Q 536 828 539 827 Q 538 822 541 823 Q 540 819 543 818 Q 542 812 545 813 L 545 807 L 547 807 Q 546 803 549 802 Q 548 796 551 797 L 551 791 L 555 789 L 555 787 Q 560 788 562 785 L 570 785 L 572 783 L 579 783 L 579 781 Q 586 783 588 779 L 595 779 L 595 777 L 601 777 L 601 775 Q 606 776 608 773 Q 613 774 612 771 L 617 771 L 617 769 Q 622 770 624 767 L 627 767 Q 626 764 631 765 L 631 763 L 640 761 L 646 757 Q 648 758 647 755 L 651 755 L 651 753 L 655 753 L 655 751 Q 658 752 660 749 Q 662 750 661 747 Q 664 748 666 745 Q 668 746 667 743 L 671 743 L 673 739 L 677 739 L 679 735 Q 682 736 684 733 Q 686 734 685 731 L 687 731 L 687 729 L 691 727 L 693 727 L 695 723 L 697 723 L 697 721 L 699 721 L 699 719 L 701 719 L 701 717 L 703 717 L 703 715 Q 706 716 708 713 Q 710 714 709 711 L 711 711 L 711 709 L 713 709 L 713 707 L 715 707 L 715 705 L 717 705 L 717 703 L 719 703 L 719 701 L 721 701 L 727 693 Q 726 690 729 691 L 729 689 L 731 689 L 731 687 L 733 687 L 733 685 L 735 685 L 735 681 L 739 679 L 739 677 L 741 677 L 741 673 L 745 671 L 745 667 L 749 665 Q 748 662 751 661 Q 750 658 753 659 L 753 655 L 755 655 L 755 651 L 759 649 Q 757 644 761 645 L 763 642 Q 762 638 765 639 L 765 635 L 767 635 L 767 631 L 769 631 Q 768 627 771 626 L 771 621 Q 775 622 773 617 L 775 617 Q 774 613 777 612 Q 776 606 779 607 L 779 601 L 781 601 Q 780 597 783 596 L 783 591 L 785 589 L 785 584 L 787 582 Q 786 574 789 575 L 789 567 Q 793 565 791 558 L 793 556 L 793 549 L 797 547 L 797 545 Q 802 546 804 543 L 807 543 Q 806 540 811 541 L 811 539 L 817 539 Q 816 535 821 537 L 821 535 L 827 535 Q 826 531 831 533 L 831 531 Q 836 532 838 529 Q 842 530 841 527 Q 845 528 847 525 L 851 525 L 851 523 Q 856 524 856 521 L 861 521 L 861 519 Q 866 520 868 517 L 871 517 Q 870 514 875 515 L 875 513 L 879 513 L 881 509 L 883 509 Q 885 502 881 501 Q 882 498 879 499 L 879 497 L 875 497 L 875 495 Q 871 496 870 493 Q 864 495 865 491 Q 860 492 859 489 Q 854 490 855 487 Q 850 488 849 485 Q 844 486 845 483 L 839 483 L 839 481 Q 835 482 834 479 Q 828 480 829 477 L 823 477 L 823 475 Q 819 476 818 473 Q 812 475 813 471 L 809 471 L 802 467 L 797 467 L 795 463 L 793 463 Q 795 456 791 455 L 791 447 L 789 445 L 789 437 L 787 435 Q 789 428 785 429 Q 787 423 783 422 Q 785 414 781 415 Q 782 411 779 410 Q 781 404 777 405 Q 778 400 775 399 Q 776 394 773 395 L 773 391 L 767 381 L 767 378 Q 764 378 765 373 L 761 371 Q 762 366 759 367 L 759 363 L 757 363 L 757 359 L 753 357 Q 755 352 751 353 L 749 350 L 749 347 L 745 345 L 745 341 L 741 339 L 741 337 L 739 337 Q 740 334 737 333 Q 738 330 735 331 L 735 329 L 733 329 L 733 327 L 731 327 Q 732 324 729 323 Q 730 320 727 321 L 727 319 L 725 319 L 725 317 L 723 317 L 723 315 L 721 315 L 721 313 L 719 313 L 719 311 L 717 311 L 717 309 L 715 309 L 715 307 L 713 307 L 713 305 L 711 305 L 711 303 L 709 303 L 709 301 L 707 301 L 707 299 L 705 299 L 705 297 L 703 297 L 703 295 L 700 293 L 697 293 L 695 289 L 693 289 L 693 287 L 691 287 L 691 285 L 687 285 L 685 281 L 683 281 L 683 279 L 681 279 L 681 277 L 677 277 L 675 273 Q 670 274 671 271 L 667 271 L 665 267 L 661 267 L 659 263 Q 654 264 655 261 L 651 261 L 649 257 L 646 257 Q 646 254 641 255 L 641 253 L 637 253 L 637 251 Q 632 252 631 249 L 628 249 Q 628 246 623 247 L 623 245 L 617 245 L 617 243 L 611 243 Q 612 239 607 241 L 607 239 L 601 239 L 601 237 L 594 237 L 593 235 L 585 235 L 585 233 L 578 233 L 576 231 L 568 231 L 567 229 L 555 229 L 553 225 L 551 225 L 551 220 Q 548 220 549 215 L 547 215 Q 548 210 545 209 Q 546 204 543 205 L 543 199 Q 539 200 541 195 L 539 195 L 539 189 L 537 189 Q 538 185 535 184 Q 536 178 533 179 L 533 173 Q 529 174 531 169 L 529 169 Q 530 164 527 163 Q 528 158 525 159 L 525 153 L 523 153 L 523 147 L 521 147 L 521 143 Q 518 144 519 141 L 507 141 Z " /><path fill="rgb(15,22,16)" stroke="rgb(15,22,16)" stroke-width="1" opacity="0.9882352941176471" d="M 499.5 269 L 527.5 269 L 528.5 270 L 552.5 272 L 574.5 277 L 595.5 284 Q 617.7 292.3 636.5 304 L 655.5 317 L 676 334 L 678.5 338 L 682 340.5 Q 716.7 375.8 736 426.5 L 743 450.5 L 748 478.5 L 748 488.5 L 749 489.5 L 749 520.5 L 748 521.5 L 748 535.5 L 743 562.5 L 738 580.5 L 728 605.5 Q 706.7 650.7 671.5 682 Q 638.6 711.6 593.5 729 L 574.5 735 L 552.5 740 L 540.5 741 L 539.5 742 L 530.5 742 L 529.5 743 L 512 743 L 518 725.5 L 530 705.5 L 577 647.5 L 597 618.5 L 606 599.5 L 609 587.5 L 610 575.5 L 610 573.5 L 607 558.5 L 601 546.5 L 585.5 529 L 558.5 510 L 517.5 488 Q 504.4 480.6 495 469.5 L 490 459.5 L 490 450.5 Q 497 434 510.5 424 Q 542.9 394.4 580 369.5 Q 581.3 363.3 577.5 362 L 571.5 361 L 533.5 376 L 478.5 405 L 446.5 427 L 430 443.5 L 422 456.5 L 420 468.5 Q 422.5 470 421 475.5 L 426 486.5 L 442.5 504 L 479.5 529 L 496 543.5 Q 502.8 549.7 501 564.5 Q 492.5 583.5 476.5 595 L 406.5 648 L 365 687.5 L 363.5 690 L 357.5 686 L 331 659.5 Q 300 624.5 284 574.5 L 278 549.5 L 276 528.5 L 275 527.5 L 275 487.5 L 276 486.5 L 278 464.5 L 280 459.5 L 282 446.5 L 288 426.5 L 295 409.5 Q 315.1 365.1 348.5 334 Q 376.4 307.4 413.5 290 Q 435.4 279.9 461.5 274 L 485.5 271 L 486.5 270 L 498.5 270 L 499.5 269 Z M 509 288 L 506 291 L 506 328 Q 508 332 516 330 L 518 327 L 518 291 Q 516 287 509 288 Z M 358 348 L 353 355 L 355 359 L 359 362 Q 358 364 361 363 L 363 367 L 380 382 L 386 382 Q 390 381 388 374 L 364 349 L 358 348 Z M 662 348 L 646 363 Q 647 365 645 364 L 636 374 L 637 380 Q 638 383 645 382 L 669 358 L 669 352 Q 668 347 662 348 Z M 298 499 L 294 503 Q 293 510 298 511 L 331 511 L 333 510 L 334 508 L 333 502 L 329 499 L 298 499 Z M 695 499 L 690 503 Q 689 509 693 511 L 727 511 L 729 510 Q 732 508 730 502 L 727 499 L 695 499 Z M 381 623 L 375 627 L 353 650 Q 353 655 358 657 Q 366 658 368 653 Q 367 650 370 651 L 370 649 L 372 649 L 388 632 L 387 626 Q 386 622 381 623 Z M 641 623 L 638 624 L 636 629 L 637 634 L 660 656 L 667 657 Q 671 655 670 649 L 646 624 L 641 623 Z " /><path fill="rgb(15,22,16)" stroke="rgb(15,22,16)" stroke-width="1" opacity="0.9882352941176471" d="M 527.5 390 Q 532.9 389.1 535 391.5 L 516.5 406 L 514.5 406 L 508 405 Q 506.9 402.3 509.5 403 L 527.5 390 Z " /><path fill="rgb(15,22,16)" stroke="rgb(15,22,16)" stroke-width="1" opacity="0.9882352941176471" d="M 490.5 416 L 498 417.5 L 478 434.5 L 476.5 437 Q 469.8 438.8 468 435.5 Q 477.1 423.7 490.5 416 Z " /><path fill="rgb(15,22,16)" stroke="rgb(15,22,16)" stroke-width="1" opacity="0.9882352941176471" d="M 457.5 454 L 464.5 454 L 465 456.5 Q 462.5 458 464 463.5 L 467 471.5 L 475 482 L 465.5 483 Q 459.1 477.9 456 469.5 L 455 458.5 L 457.5 454 Z " /><path fill="rgb(15,22,16)" stroke="rgb(15,22,16)" stroke-width="1" opacity="0.9882352941176471" d="M 499.5 502 L 506.5 504 L 539 525.5 L 537.5 527 L 526.5 528 L 492 504.5 L 499.5 502 Z " /><path fill="rgb(15,22,16)" stroke="rgb(15,22,16)" stroke-width="1" opacity="0.9882352941176471" d="M 552.5 555 L 558 555 L 558 563.5 L 558 565.5 Q 557.2 585.7 546.5 596 L 533 594.5 Q 541 587.5 545 576.5 Q 548.6 568.4 547 556 L 552.5 555 Z " /><path fill="rgb(15,22,16)" stroke="rgb(15,22,16)" stroke-width="1" opacity="0.9882352941176471" d="M 506.5 623 L 520 624 L 520 626.5 L 487.5 660 Q 485.3 659.3 486 661.5 L 480.5 666 L 464 662.5 L 471.5 654 L 506.5 623 Z " /><path fill="rgb(15,22,16)" stroke="rgb(15,22,16)" stroke-width="1" opacity="0.9882352941176471" d="M 438 694 L 454 696 L 454 698.5 L 443 714.5 L 435.5 731 L 420 723.5 Q 427.5 706.7 438 694 Z " /><path fill="rgb(0,177,0)" stroke="rgb(0,177,0)" stroke-width="1" opacity="0.996078431372549" d="M 510.5 142 L 517 143 L 550 228 L 553.5 230 L 560.5 230 L 563.5 232 L 570.5 232 L 573.5 234 L 579.5 234 L 582.5 236 L 595.5 238 L 598.5 240 L 607.5 242 L 609.5 244 L 618.5 246 L 620.5 248 L 623.5 248 L 625.5 250 L 644.5 258 L 682.5 282 L 706.5 302 L 719 314.5 L 749 352.5 L 766 382.5 L 781 419.5 L 787 441.5 L 790 461.5 L 793.5 467 L 875.5 498 L 880 502.5 L 879 509 L 791 545 L 783 584.5 L 781 587.5 L 777 602.5 L 763 634.5 L 749 656.5 L 749 658.5 L 734 679.5 Q 718.3 700.3 698.5 717 L 685.5 728 L 654.5 749 L 631.5 761 L 595.5 775 L 576.5 779 L 573.5 781 L 556.5 783 L 551 785 L 539 815.5 L 539 818.5 L 537 820.5 L 537 823.5 L 521 861.5 L 521 864.5 L 515.5 872 Q 509.3 873.3 508 869.5 L 504 861.5 L 502 852.5 L 500 850.5 L 494 835.5 L 494 832.5 L 492 830.5 L 492 827.5 L 490 825.5 L 490 822.5 L 488 820.5 L 488 817.5 L 486 815.5 L 486 812.5 L 484 810.5 L 484 807.5 L 480 800.5 L 478 791.5 L 472.5 784 L 453.5 781 L 427.5 774 Q 404 766.5 383.5 756 L 359.5 742 L 339.5 728 L 299 689.5 L 278 662.5 L 278 660.5 L 268 646.5 L 256 623.5 L 252 610.5 L 246 598.5 L 244 587.5 L 242 585.5 Q 242.8 580.2 240 578.5 L 240 572.5 L 238 569.5 Q 239.4 562.1 236 559.5 L 236 551.5 L 231.5 544 L 169.5 518 L 149.5 511 L 146 507.5 L 146 502.5 L 150.5 498 L 160.5 494 L 164 494 Q 162.7 490.7 167.5 492 L 169.5 490 L 173.5 490 L 175.5 488 L 178.5 488 L 180.5 486 L 183.5 486 L 195.5 480 L 199.5 480 L 211.5 474 L 215.5 474 L 222.5 470 L 226.5 470 Q 227.8 467 232 468 Q 231 465 234 466 L 234 463.5 L 236 461.5 L 236 453.5 L 238 451.5 L 238 444.5 L 240 441.5 L 240 435.5 Q 243 433.5 242 427.5 L 244 425.5 L 244 420.5 L 246 418.5 L 246 415.5 L 248 413.5 L 250 404.5 L 252 402.5 L 252 399.5 L 254 397.5 L 254 394.5 L 256 392.5 L 258 385.5 L 272 362.5 L 272 360 Q 275 361.3 274 357.5 L 276 354 Q 279 355.3 278 351.5 L 284 342 Q 286.7 343.1 286 340.5 L 290 334 L 292 334 L 292 332 Q 294.7 333.1 294 330.5 L 302 320 L 304 320 L 304 318 Q 306.7 319.1 306 316.5 L 318.5 303 L 326 298 L 326 296 L 328 296 Q 326.9 293.3 329.5 294 L 338 288 Q 336.9 285.3 339.5 286 L 346 282 Q 344.9 279.3 347.5 280 L 354 276 Q 352.8 273 356.5 274 L 360 272 Q 358.9 269.3 361.5 270 L 366 268 Q 364.8 265 368.5 266 Q 372.8 261 380 260 Q 378.8 257 382.5 258 Q 383.8 255 388 256 Q 386.7 252.7 391.5 254 L 397.5 250 L 405.5 248 L 416.5 242 L 421.5 242 Q 422.8 238.8 428.5 240 L 430.5 238 L 434.5 238 L 436.5 236 Q 441.8 236.8 443.5 234 L 451.5 234 L 454.5 232 L 461.5 232 Q 464.1 228.6 471.5 230 L 476 225.5 L 484 203.5 L 486 201.5 L 486 198.5 L 488 196.5 L 488 193.5 L 490 191.5 L 490 188.5 L 492 186.5 L 492 183.5 L 494 181.5 L 494 177.5 L 496 175.5 L 500 162.5 L 506 151.5 L 506 147.5 L 510.5 142 Z M 500 269 L 499 270 L 487 270 L 486 271 L 462 274 Q 435 280 414 290 Q 376 307 349 334 Q 315 365 295 410 L 288 427 L 282 447 L 280 460 L 278 465 L 276 487 L 275 488 L 275 528 L 276 529 L 278 550 L 284 575 Q 300 624 331 660 L 358 686 L 364 690 L 365 688 L 407 648 L 477 595 Q 492 584 501 565 Q 503 550 496 544 L 480 529 L 443 504 L 426 487 L 421 476 Q 423 470 420 469 L 422 457 L 430 444 L 447 427 L 479 405 L 534 376 L 572 361 L 578 362 Q 581 363 580 370 Q 543 394 511 424 Q 497 434 490 451 L 490 460 L 495 470 Q 504 481 518 488 L 559 510 L 586 529 L 601 547 L 607 559 L 610 574 L 610 576 L 609 588 L 606 600 L 597 619 L 577 648 L 530 706 L 518 726 L 512 743 L 530 743 L 531 742 L 540 742 L 541 741 L 553 740 L 575 735 L 594 729 Q 639 712 672 682 Q 707 651 728 606 L 738 581 L 743 563 L 748 536 L 748 522 L 749 521 L 749 490 L 748 489 L 748 479 L 743 451 L 736 427 Q 717 376 682 341 L 679 338 L 676 334 L 656 317 L 637 304 Q 618 292 596 284 L 575 277 L 553 272 L 529 270 L 528 269 L 500 269 Z M 528 390 L 510 403 Q 507 402 508 405 L 515 406 L 517 406 L 535 392 Q 533 389 528 390 Z M 491 416 Q 477 424 468 436 Q 470 439 477 437 L 478 435 L 498 418 L 491 416 Z M 458 454 L 455 459 L 456 470 Q 459 478 466 483 L 475 482 L 467 472 L 464 464 Q 463 458 465 457 L 465 454 L 458 454 Z M 500 502 L 492 505 L 527 528 L 538 527 L 539 526 L 507 504 L 500 502 Z M 553 555 L 547 556 Q 549 568 545 577 Q 541 588 533 595 L 547 596 Q 557 586 558 566 L 558 564 L 558 555 L 553 555 Z M 507 623 L 472 654 L 464 663 L 481 666 L 486 662 Q 485 659 488 660 L 520 627 L 520 624 L 507 623 Z M 438 694 Q 427 707 420 724 L 436 731 L 443 715 L 454 699 L 454 696 L 438 694 Z " /><path fill="rgb(0,177,0)" stroke="rgb(0,177,0)" stroke-width="1" opacity="0.996078431372549" d="M 508.5 288 Q 515.8 286.8 518 290.5 L 518 326.5 L 515.5 330 Q 507.7 331.7 506 327.5 L 506 290.5 L 508.5 288 Z " /><path fill="rgb(0,177,0)" stroke="rgb(0,177,0)" stroke-width="1" opacity="0.996078431372549" d="M 357.5 348 L 363.5 349 L 388 373.5 Q 389.5 380.5 385.5 382 L 379.5 382 L 363 366.5 L 360.5 363 Q 358.3 363.8 359 361.5 L 355 359 L 353 354.5 L 357.5 348 Z " /><path fill="rgb(0,177,0)" stroke="rgb(0,177,0)" stroke-width="1" opacity="0.996078431372549" d="M 661.5 348 Q 667.7 347.3 669 351.5 L 669 357.5 L 644.5 382 Q 638.3 383.3 637 379.5 L 636 373.5 L 644.5 364 Q 646.8 364.8 646 362.5 L 661.5 348 Z " /><path fill="rgb(0,177,0)" stroke="rgb(0,177,0)" stroke-width="1" opacity="0.996078431372549" d="M 297.5 499 L 328.5 499 L 333 501.5 L 334 507.5 L 333 510 L 330.5 511 L 297.5 511 Q 292.8 509.7 294 502.5 L 297.5 499 Z " /><path fill="rgb(0,177,0)" stroke="rgb(0,177,0)" stroke-width="1" opacity="0.996078431372549" d="M 694.5 499 L 726.5 499 L 730 501.5 Q 731.8 508.3 728.5 510 L 726.5 511 L 692.5 511 Q 689 509 690 502.5 L 694.5 499 Z " /><path fill="rgb(0,177,0)" stroke="rgb(0,177,0)" stroke-width="1" opacity="0.996078431372549" d="M 380.5 623 Q 385.6 622.4 387 625.5 L 388 631.5 L 371.5 649 L 370 649 L 370 651 Q 367.3 649.9 368 652.5 Q 366.1 658.1 357.5 657 Q 353.4 655 353 649.5 L 374.5 627 L 380.5 623 Z " /><path fill="rgb(0,177,0)" stroke="rgb(0,177,0)" stroke-width="1" opacity="0.996078431372549" d="M 640.5 623 L 645.5 624 L 670 648.5 Q 670.9 655.4 666.5 657 L 659.5 656 L 637 633.5 L 636 628.5 L 638 624 L 640.5 623 Z " /></svg>