<svg version="1.0" xmlns="http://www.w3.org/2000/svg"
 width="300.000000pt" height="271.000000pt" viewBox="0 0 300.000000 271.000000"
 preserveAspectRatio="xMidYMid meet">
<metadata>
Created by potrace 1.10, written by Peter Selinger 2001-2011
</metadata>
<g transform="translate(0.000000,271.000000) scale(0.100000,-0.100000)"
fill="#000000" stroke="none">
<path d="M394 2120 c-53 -22 -54 -28 -54 -398 0 -273 3 -350 14 -377 14 -33
231 -265 248 -265 5 0 29 13 53 30 70 48 92 53 245 59 l145 6 3 447 2 447 -24
28 -24 28 -294 2 c-161 1 -303 -2 -314 -7z m330 -212 c8 -13 8 -23 0 -35 -9
-15 -27 -18 -115 -18 -101 0 -104 1 -107 23 -7 45 13 53 116 50 77 -2 97 -6
106 -20z m160 -180 c8 -13 8 -23 0 -35 -10 -16 -31 -18 -195 -18 l-184 0 -3
23 c-7 49 7 53 196 50 154 -3 176 -5 186 -20z m-4 -177 c13 -25 13 -27 -6 -45
-13 -13 -44 -16 -183 -16 -171 0 -191 4 -191 40 0 36 20 40 197 40 160 0 173
-1 183 -19z"/>
<path d="M1461 2077 c-29 -35 -21 -259 13 -372 20 -67 76 -157 221 -358 l121
-167 231 -3 232 -2 -19 30 c-10 17 -126 180 -257 364 -255 357 -306 415 -416
469 -96 47 -114 53 -126 39z"/>
<path d="M2372 1978 c-6 -7 -20 -37 -32 -67 -33 -84 -55 -107 -136 -146 -40
-19 -74 -40 -74 -45 0 -5 30 -25 68 -44 84 -43 106 -67 141 -152 15 -38 34
-69 41 -69 8 0 25 27 38 60 35 88 57 112 132 150 38 19 71 38 74 43 9 14 -8
28 -64 54 -80 36 -96 54 -134 141 -39 91 -40 92 -54 75z"/>
<path d="M1100 1060 l-335 -5 -45 -27 c-61 -35 -146 -127 -172 -185 -44 -98
-34 -254 23 -365 28 -55 111 -132 176 -164 56 -28 63 -29 238 -32 99 -1 441 1
760 5 l580 8 47 23 c63 31 138 109 174 180 27 53 29 65 29 177 0 108 -3 125
-26 175 -49 105 -134 176 -244 205 -63 16 -427 18 -1205 5z m-184 -308 c52
-41 58 -100 15 -143 -21 -21 -39 -29 -64 -29 -88 0 -129 110 -64 170 26 25 84
26 113 2z m1390 -64 c-10 -74 -44 -138 -86 -163 -32 -18 -56 -20 -285 -23
-244 -4 -251 -3 -269 17 -25 28 -17 35 71 56 39 9 179 50 310 90 131 41 244
74 252 74 11 1 12 -10 7 -51z"/>
</g>
</svg>
