<svg id="svg" version="1.1" xmlns="http://www.w3.org/2000/svg" xmlns:xlink="http://www.w3.org/1999/xlink" width="400" height="400" viewBox="0, 0, 400,400"><g id="svgg"><path id="path0" d="M187.500 79.718 C 142.099 84.027,101.685 115.396,86.137 158.396 C 57.558 237.435,115.639 320.313,199.609 320.313 C 289.287 320.313,347.731 226.165,307.759 146.094 C 285.316 101.136,237.855 74.940,187.500 79.718 M141.445 119.526 C 146.792 119.533,146.302 119.193,158.635 131.463 C 170.602 143.369,170.069 142.488,170.243 150.634 L 170.378 156.933 172.103 158.626 L 173.828 160.319 173.828 181.917 C 173.828 193.796,173.781 203.516,173.723 203.516 C 173.665 203.516,168.432 198.330,162.095 191.992 L 150.571 180.469 139.296 180.469 C 127.136 180.469,125.940 180.316,123.703 178.472 C 120.571 175.890,120.667 176.833,120.789 149.687 L 120.898 125.586 121.875 123.845 C 123.856 120.314,130.264 118.366,136.523 119.393 C 136.953 119.463,139.168 119.523,141.445 119.526 M206.852 120.130 C 214.980 122.219,221.489 129.064,223.251 137.377 C 223.729 139.634,223.816 149.681,223.821 203.398 L 223.828 266.757 222.856 269.835 C 215.932 291.752,183.990 290.652,178.725 268.315 C 178.011 265.287,177.810 141.264,178.513 137.456 C 180.756 125.297,194.430 116.937,206.852 120.130 M279.372 121.777 C 280.589 123.194,280.523 123.818,278.356 131.445 C 278.051 132.520,276.916 136.650,275.835 140.625 C 274.753 144.600,273.053 150.752,272.058 154.297 C 271.063 157.842,269.844 162.236,269.350 164.063 C 265.881 176.886,266.092 176.285,264.809 176.972 C 263.385 177.734,262.252 176.552,261.330 173.342 C 260.882 171.783,260.084 169.250,259.555 167.712 C 259.026 166.174,258.594 164.655,258.594 164.336 C 258.594 162.652,257.302 163.699,253.702 168.302 C 251.576 171.019,248.911 174.385,247.780 175.781 C 246.649 177.178,243.577 181.045,240.954 184.375 C 229.262 199.219,229.466 198.978,228.909 198.635 C 228.659 198.480,228.516 194.244,228.516 187.041 L 228.516 175.691 230.469 173.205 C 231.543 171.838,232.422 170.555,232.422 170.353 C 232.422 170.152,232.582 169.928,232.779 169.857 C 232.975 169.785,234.817 167.529,236.871 164.844 C 238.925 162.158,241.269 159.187,242.080 158.240 C 244.099 155.884,245.043 154.298,244.428 154.295 C 244.162 154.293,241.537 154.671,238.594 155.134 C 232.338 156.118,231.250 155.858,231.250 153.379 C 231.250 151.715,231.397 151.590,240.820 145.243 C 245.117 142.349,250.303 138.837,252.344 137.439 C 254.385 136.041,258.604 133.171,261.719 131.060 C 264.834 128.950,268.178 126.650,269.149 125.948 C 275.219 121.568,278.161 120.367,279.372 121.777 M127.705 126.398 L 126.758 127.406 126.651 149.445 C 126.531 174.054,126.423 173.036,129.239 173.819 C 131.588 174.471,159.881 174.344,161.485 173.674 C 164.074 172.592,164.063 172.654,164.060 158.995 C 164.057 145.018,164.328 146.276,160.464 142.295 C 157.201 138.931,146.947 128.924,144.833 127.038 L 142.986 125.391 135.819 125.391 L 128.652 125.391 127.705 126.398 M144.699 138.114 C 145.502 138.917,145.484 140.960,144.666 141.864 C 143.714 142.916,133.639 142.942,132.733 141.895 C 131.738 140.745,131.652 139.544,132.488 138.481 C 133.467 137.237,143.519 136.935,144.699 138.114 M198.856 144.804 C 194.964 146.849,194.717 152.123,198.398 154.582 C 200.986 156.311,204.481 155.272,205.956 152.336 C 208.314 147.644,203.390 142.421,198.856 144.804 M156.484 146.783 C 157.856 147.699,158.105 149.539,157.016 150.708 C 156.119 151.671,134.496 152.073,132.787 151.158 C 131.826 150.644,131.759 148.214,132.678 147.199 C 133.355 146.450,155.409 146.065,156.484 146.783 M157.003 157.279 C 157.976 158.517,158.025 159.468,157.182 160.756 L 156.551 161.719 145.159 161.719 C 135.481 161.719,133.637 161.627,132.899 161.111 C 131.753 160.308,131.744 158.364,132.881 157.154 L 133.730 156.250 144.962 156.250 L 156.193 156.250 157.003 157.279 M257.785 189.829 C 258.851 190.400,259.270 191.826,260.369 198.625 C 260.924 202.058,261.439 204.929,261.514 205.004 C 261.684 205.173,263.180 204.224,266.156 202.057 C 269.634 199.525,272.396 199.828,272.396 202.742 C 272.396 203.735,271.659 205.132,268.342 210.431 C 267.632 211.566,267.713 211.615,271.110 212.117 C 278.039 213.140,280.096 214.509,278.716 217.178 C 278.036 218.493,276.210 219.148,270.961 219.958 C 268.056 220.407,266.821 221.146,267.855 221.817 C 268.934 222.516,272.266 228.589,272.266 229.856 C 272.266 233.149,269.727 233.161,265.035 229.890 L 261.403 227.358 260.809 230.183 C 260.482 231.737,260.002 234.238,259.742 235.742 C 258.967 240.230,257.940 241.490,255.739 240.654 C 254.325 240.116,254.119 239.567,252.957 233.220 C 252.388 230.115,251.877 227.528,251.821 227.472 C 251.765 227.416,250.071 228.507,248.057 229.896 C 243.382 233.121,241.587 233.167,240.841 230.078 C 240.623 229.177,243.510 223.521,244.895 222.136 C 245.896 221.136,245.180 220.761,240.676 219.931 C 235.071 218.898,233.594 218.139,233.594 216.291 C 233.594 213.788,235.633 212.837,242.103 212.323 C 244.985 212.094,245.832 211.421,244.793 210.187 C 238.613 202.846,240.320 197.491,247.317 202.267 C 249.172 203.533,250.959 204.672,251.290 204.799 C 251.898 205.032,252.113 204.098,253.565 194.922 C 254.331 190.075,255.534 188.624,257.785 189.829 M157.039 192.936 C 161.016 194.447,164.759 198.189,166.255 202.148 C 167.429 205.259,167.363 223.622,166.168 226.172 C 164.981 228.705,162.208 231.583,160.352 232.210 L 158.789 232.738 158.594 238.862 C 158.286 248.498,157.773 248.523,148.570 239.355 L 141.805 232.617 134.249 232.422 L 126.693 232.227 124.799 231.054 C 123.757 230.410,122.277 229.009,121.511 227.943 L 120.117 226.003 119.998 213.099 C 119.801 191.819,119.349 192.266,141.109 192.218 C 153.962 192.190,155.226 192.247,157.039 192.936 M199.023 252.339 C 196.587 253.943,195.852 256.892,197.303 259.241 C 199.301 262.472,203.519 262.482,205.485 259.258 C 208.125 254.928,203.164 249.614,199.023 252.339 " stroke="none" fill="#fffff" fill-rule="evenodd"></path><path id="path1" d="M199.208 29.792 C 198.949 30.487,198.684 31.422,198.620 31.872 C 198.556 32.321,197.799 35.924,196.937 39.879 C 196.075 43.834,194.464 51.289,193.357 56.445 C 192.249 61.602,190.962 67.398,190.496 69.327 L 189.648 72.834 185.156 73.314 C 182.686 73.578,179.212 74.074,177.438 74.418 C 175.663 74.761,174.052 74.943,173.858 74.823 C 173.663 74.703,173.445 74.741,173.373 74.907 C 173.301 75.073,171.484 75.626,169.336 76.135 C 164.277 77.334,157.040 79.646,152.283 81.584 C 149.448 82.739,148.399 83.010,148.061 82.674 C 147.721 82.337,147.667 82.377,147.842 82.837 C 148.013 83.286,147.531 83.698,146.013 84.399 C 142.137 86.189,135.355 89.972,131.554 92.465 C 129.465 93.834,127.707 94.925,127.648 94.888 C 127.588 94.851,127.012 95.269,126.367 95.816 C 124.505 97.398,117.209 103.125,117.056 103.125 C 115.811 103.125,101.346 118.788,97.124 124.707 C 96.090 126.157,95.054 127.344,94.822 127.344 C 94.591 127.344,94.510 127.453,94.644 127.587 C 94.777 127.720,94.218 128.819,93.401 130.028 C 92.584 131.237,90.706 134.336,89.228 136.914 C 87.750 139.492,86.361 141.731,86.141 141.889 C 85.922 142.046,85.862 142.178,86.008 142.182 C 86.154 142.185,85.429 143.989,84.397 146.191 C 79.748 156.110,75.208 170.868,73.997 180.000 C 73.849 181.117,73.580 182.031,73.399 182.031 C 73.219 182.031,73.172 182.294,73.295 182.614 C 73.418 182.935,73.309 184.679,73.052 186.490 L 72.584 189.783 70.765 190.194 C 67.024 191.038,39.056 196.484,38.772 196.423 C 38.609 196.389,38.213 196.465,37.891 196.592 C 36.123 197.290,33.077 197.647,32.558 197.217 C 32.258 196.967,31.899 196.877,31.761 197.015 C 31.623 197.153,31.715 197.266,31.966 197.266 C 32.811 197.266,32.430 197.960,31.451 198.206 C 29.270 198.753,29.860 201.340,32.270 201.792 C 33.003 201.929,33.700 202.200,33.820 202.394 C 33.940 202.588,34.177 202.661,34.347 202.556 C 34.584 202.410,68.945 209.192,68.945 209.385 C 68.945 209.409,69.561 209.505,70.313 209.599 C 72.265 209.843,72.610 210.025,72.618 210.819 C 72.621 211.206,73.056 214.248,73.584 217.578 C 74.113 220.908,74.473 223.704,74.385 223.792 C 74.297 223.880,74.402 224.165,74.619 224.425 C 74.835 224.686,75.053 225.581,75.103 226.414 C 75.154 227.248,75.300 228.018,75.427 228.125 C 75.662 228.322,77.526 235.409,77.535 236.133 C 77.537 236.348,77.641 236.611,77.765 236.719 C 77.972 236.899,80.077 243.445,80.214 244.336 C 80.247 244.551,80.373 244.814,80.494 244.922 C 80.616 245.029,81.312 246.611,82.041 248.438 C 83.784 252.800,88.495 262.255,90.946 266.309 C 92.795 269.368,92.912 269.731,91.992 269.545 C 91.777 269.502,91.746 269.610,91.922 269.787 C 92.098 269.963,92.492 270.109,92.797 270.112 C 93.101 270.115,93.337 270.277,93.320 270.473 C 93.303 270.668,93.579 270.990,93.932 271.188 C 94.442 271.473,94.478 271.664,94.107 272.111 C 93.733 272.562,93.752 272.631,94.205 272.457 C 94.569 272.318,95.226 272.873,96.043 274.011 C 96.742 274.984,97.231 275.781,97.130 275.781 C 97.028 275.781,97.352 276.265,97.850 276.855 C 103.032 283.011,105.420 286.091,105.238 286.385 C 105.118 286.579,105.183 286.690,105.382 286.631 C 105.581 286.572,108.593 289.292,112.075 292.676 C 115.557 296.060,118.488 298.828,118.588 298.828 C 118.770 298.828,124.021 302.856,125.684 304.271 C 126.167 304.682,126.563 304.948,126.563 304.860 C 126.562 304.773,128.188 305.770,130.176 307.075 C 132.163 308.380,135.402 310.348,137.374 311.448 C 139.346 312.548,140.875 313.584,140.772 313.751 C 140.669 313.917,140.835 313.958,141.140 313.840 C 141.446 313.723,141.982 313.913,142.332 314.263 C 142.682 314.613,142.969 314.810,142.969 314.702 C 142.969 314.593,144.419 315.169,146.191 315.982 C 147.964 316.796,151.172 318.133,153.320 318.955 C 155.469 319.777,157.314 320.550,157.422 320.674 C 157.529 320.797,157.793 320.902,158.008 320.906 C 159.099 320.925,162.500 322.002,162.500 322.328 C 162.500 322.534,162.643 322.614,162.818 322.506 C 162.993 322.398,164.722 322.722,166.659 323.227 C 172.209 324.673,177.510 325.695,183.008 326.378 C 189.643 327.203,189.755 327.230,190.006 328.028 C 190.210 328.678,193.931 345.990,197.275 361.855 C 198.129 365.904,198.712 369.403,198.572 369.630 C 198.432 369.857,198.500 369.930,198.723 369.791 C 198.947 369.653,199.221 369.890,199.333 370.317 C 199.726 371.819,201.252 371.098,201.367 369.356 C 201.429 368.430,204.252 355.174,204.575 354.297 C 204.693 353.975,204.856 353.184,204.936 352.539 C 205.016 351.895,205.192 351.104,205.326 350.781 C 205.460 350.459,205.598 349.844,205.634 349.414 C 205.784 347.605,208.775 333.779,209.041 333.666 C 209.201 333.599,209.247 333.325,209.145 333.058 C 208.873 332.349,210.037 327.659,210.566 327.332 C 210.814 327.179,212.361 326.933,214.004 326.785 C 221.801 326.082,232.512 323.780,240.988 320.985 C 243.044 320.307,244.902 319.746,245.117 319.739 C 245.332 319.732,245.596 319.627,245.703 319.506 C 245.811 319.384,247.393 318.690,249.219 317.962 C 251.045 317.235,255.127 315.347,258.290 313.768 C 261.454 312.188,264.159 310.921,264.301 310.950 C 264.444 310.980,264.675 310.820,264.814 310.596 C 264.953 310.371,266.642 309.198,268.568 307.990 C 273.819 304.696,277.764 301.776,282.528 297.656 C 284.889 295.615,287.668 293.219,288.705 292.332 C 289.741 291.445,290.510 290.640,290.412 290.543 C 290.315 290.445,290.675 290.131,291.212 289.843 C 291.748 289.556,292.188 289.114,292.188 288.862 C 292.187 288.279,293.531 287.042,293.879 287.304 C 294.023 287.412,294.063 287.393,293.968 287.262 C 293.873 287.132,294.929 285.725,296.314 284.136 C 307.232 271.618,316.079 255.742,321.324 239.258 C 322.145 236.680,322.957 234.511,323.129 234.439 C 323.301 234.367,323.347 234.154,323.230 233.964 C 323.113 233.775,323.283 232.692,323.608 231.556 C 324.483 228.496,326.040 220.709,326.753 215.820 C 327.635 209.774,327.423 210.068,331.493 209.248 C 370.073 201.476,369.922 201.513,369.922 199.805 C 369.922 198.520,369.232 198.126,365.786 197.442 C 364.086 197.104,362.432 196.723,362.109 196.594 C 361.787 196.466,361.403 196.384,361.256 196.414 C 360.886 196.488,349.161 194.154,348.438 193.862 C 348.115 193.732,347.730 193.651,347.581 193.680 C 347.157 193.766,328.093 189.942,327.880 189.729 C 327.682 189.531,326.534 181.807,326.631 181.327 C 326.662 181.177,326.581 180.791,326.451 180.469 C 326.322 180.146,325.931 178.389,325.583 176.563 C 323.023 163.138,317.242 147.767,310.403 136.200 C 309.448 134.583,308.767 133.160,308.890 133.037 C 309.014 132.913,308.934 132.813,308.714 132.813 C 308.494 132.813,307.656 131.746,306.852 130.444 C 300.074 119.462,287.982 106.553,276.172 97.691 C 274.346 96.320,272.632 94.927,272.363 94.595 C 272.095 94.263,271.875 94.118,271.875 94.273 C 271.875 94.428,270.601 93.700,269.043 92.655 C 267.485 91.611,265.068 90.092,263.672 89.280 C 262.275 88.469,261.004 87.604,260.846 87.359 C 260.688 87.114,260.556 87.034,260.553 87.181 C 260.550 87.328,258.042 86.248,254.980 84.781 C 248.955 81.893,244.064 79.911,239.453 78.490 C 237.842 77.993,236.436 77.488,236.328 77.367 C 236.221 77.247,235.869 77.126,235.547 77.099 C 235.225 77.072,232.148 76.420,228.711 75.651 C 223.042 74.383,215.936 73.243,211.948 72.960 L 210.419 72.852 209.125 66.992 C 208.414 63.770,207.760 60.518,207.672 59.766 C 207.584 59.014,207.414 58.135,207.293 57.813 C 206.728 56.300,203.901 41.731,204.108 41.396 C 204.237 41.187,204.177 41.016,203.974 41.016 C 203.771 41.016,203.483 40.181,203.334 39.160 C 203.185 38.140,202.638 35.486,202.117 33.264 C 201.597 31.042,201.246 29.102,201.339 28.953 C 201.431 28.803,201.095 28.647,200.593 28.606 C 199.891 28.548,199.572 28.821,199.208 29.792 M211.384 79.697 C 312.245 89.684,356.784 212.634,285.548 284.427 C 219.026 351.470,105.396 320.324,82.278 228.711 C 62.085 148.686,128.931 71.533,211.384 79.697 M126.953 119.990 C 125.124 120.510,123.321 121.927,122.205 123.722 L 121.289 125.195 121.094 149.707 C 120.986 163.189,121.011 174.219,121.149 174.219 C 121.287 174.219,121.518 174.688,121.662 175.262 C 121.926 176.315,124.743 179.327,125.798 179.685 C 126.111 179.792,131.816 179.976,138.477 180.095 C 145.137 180.214,150.667 180.347,150.766 180.390 C 150.865 180.433,156.094 185.606,162.387 191.886 L 173.828 203.303 173.828 182.103 L 173.828 160.904 172.122 159.065 L 170.416 157.227 170.218 151.172 C 169.927 142.290,170.985 143.979,157.224 130.440 C 148.032 121.396,146.897 120.406,145.237 119.990 C 143.002 119.430,128.924 119.430,126.953 119.990 M196.676 119.861 C 196.570 119.966,196.176 120.087,195.801 120.128 C 193.665 120.365,188.337 123.187,185.712 125.472 C 182.845 127.968,180.963 130.898,179.114 135.742 C 178.472 137.424,178.430 140.870,178.447 190.039 C 178.471 258.823,178.531 268.323,178.943 268.578 C 179.138 268.698,179.297 269.117,179.297 269.509 C 179.297 269.901,180.012 271.651,180.886 273.397 C 189.737 291.081,216.163 289.021,222.563 270.147 L 223.633 266.992 223.633 218.164 C 223.633 191.309,223.544 162.041,223.435 153.125 L 223.237 136.914 222.044 133.971 C 219.449 127.564,214.773 123.198,207.617 120.499 C 207.188 120.337,206.484 120.138,206.055 120.058 C 204.777 119.819,196.884 119.653,196.676 119.861 M276.560 121.650 C 275.293 122.098,270.435 125.288,259.385 132.930 C 256.920 134.634,254.635 136.130,254.307 136.254 C 253.979 136.378,253.474 136.714,253.183 137.001 C 252.893 137.288,248.099 140.607,242.528 144.377 C 231.630 151.753,230.735 152.567,231.682 154.244 C 232.516 155.722,239.538 155.412,245.107 153.651 C 245.780 153.438,245.743 153.585,244.814 154.803 C 244.229 155.570,243.750 156.346,243.750 156.528 C 243.750 156.709,243.251 157.295,242.641 157.831 C 242.031 158.366,241.459 158.978,241.371 159.191 C 241.014 160.054,235.427 167.188,235.109 167.188 C 234.920 167.188,234.766 167.367,234.766 167.587 C 234.766 167.806,233.447 169.702,231.836 171.800 L 228.906 175.614 228.919 187.319 L 228.931 199.023 229.930 197.852 C 230.480 197.207,231.529 195.992,232.262 195.152 C 232.994 194.312,233.594 193.567,233.594 193.497 C 233.594 193.161,238.862 186.719,239.137 186.719 C 239.311 186.719,239.453 186.532,239.453 186.304 C 239.453 186.077,240.820 184.187,242.490 182.105 C 244.160 180.024,245.786 177.952,246.103 177.501 C 247.491 175.528,256.367 164.636,256.682 164.518 C 256.874 164.447,257.031 164.161,257.031 163.882 C 257.031 163.604,257.276 163.174,257.575 162.926 C 258.139 162.458,259.220 164.536,258.782 165.246 C 258.676 165.418,258.735 165.617,258.914 165.689 C 259.093 165.761,259.880 167.887,260.662 170.413 C 263.064 178.166,265.133 179.269,266.497 173.526 C 266.763 172.403,267.126 171.484,267.303 171.484 C 267.480 171.484,267.532 171.334,267.418 171.151 C 267.305 170.968,267.975 168.112,268.907 164.804 C 269.839 161.496,271.354 155.977,272.272 152.539 C 273.191 149.102,274.094 146.230,274.279 146.158 C 274.463 146.086,274.525 145.883,274.416 145.706 C 274.222 145.392,278.732 128.716,279.222 127.936 C 279.359 127.718,279.482 127.363,279.494 127.148 C 279.507 126.934,279.656 126.024,279.827 125.127 C 280.363 122.307,278.952 120.805,276.560 121.650 M146.825 128.608 C 155.757 137.135,163.288 144.776,163.670 145.699 C 164.610 147.967,164.000 172.112,162.978 173.134 L 162.088 174.023 145.295 174.133 L 128.501 174.243 127.532 173.197 L 126.563 172.152 126.563 149.800 C 126.563 127.780,126.574 127.434,127.372 126.420 L 128.182 125.391 135.818 125.391 L 143.455 125.391 146.825 128.608 M132.864 138.500 C 130.612 141.362,132.598 142.679,138.916 142.512 C 144.417 142.367,145.674 141.752,145.114 139.478 C 144.705 137.822,144.310 137.700,138.900 137.568 L 133.697 137.441 132.864 138.500 M204.263 145.214 C 207.443 147.543,207.280 152.355,203.946 154.582 C 200.273 157.036,195.370 153.826,195.834 149.272 C 196.263 145.061,200.964 142.798,204.263 145.214 M133.984 146.753 C 132.010 147.509,131.453 149.422,132.813 150.781 C 133.557 151.526,134.115 151.563,144.727 151.563 C 156.934 151.563,157.422 151.468,157.422 149.098 C 157.422 146.702,157.352 146.687,145.442 146.604 C 139.463 146.562,134.307 146.629,133.984 146.753 M143.620 156.641 C 131.563 156.865,130.166 157.376,132.778 160.601 L 133.525 161.523 145.131 161.604 C 151.514 161.648,156.636 161.584,156.512 161.460 C 156.388 161.336,156.543 160.980,156.855 160.668 C 157.577 159.945,157.589 158.047,156.874 157.453 C 155.798 156.560,153.965 156.448,143.620 156.641 M254.915 190.723 C 254.601 191.206,254.222 192.528,254.073 193.661 C 253.925 194.794,253.648 195.817,253.458 195.934 C 253.268 196.052,253.218 196.318,253.347 196.527 C 253.578 196.901,252.894 201.990,252.460 203.125 C 252.336 203.447,252.201 204.018,252.159 204.394 C 252.024 205.613,251.735 205.514,247.932 202.934 C 243.910 200.207,243.018 199.951,241.797 201.172 C 240.440 202.529,240.822 203.871,243.832 208.317 C 246.227 211.855,246.196 211.950,242.450 212.480 C 234.788 213.565,234.478 213.651,233.982 214.849 C 232.896 217.471,234.179 218.412,240.575 219.685 C 243.218 220.212,245.478 220.738,245.596 220.856 C 245.825 221.085,242.670 226.173,242.001 226.654 C 241.781 226.812,241.743 226.944,241.917 226.947 C 242.090 226.950,241.958 227.344,241.624 227.821 C 239.397 231.000,242.742 233.302,246.164 230.946 C 247.170 230.254,248.162 229.688,248.368 229.688 C 248.575 229.688,248.846 229.424,248.969 229.102 C 249.093 228.779,249.376 228.516,249.597 228.516 C 249.819 228.516,250.381 228.135,250.846 227.669 L 251.692 226.823 252.002 227.661 C 252.365 228.641,253.929 236.599,253.842 237.019 C 253.809 237.176,253.898 237.612,254.040 237.988 C 254.181 238.364,254.382 238.943,254.486 239.274 C 254.590 239.605,255.235 240.112,255.920 240.400 C 258.022 241.284,258.534 240.409,259.815 233.734 C 261.185 226.596,260.955 226.791,264.811 229.493 C 271.353 234.077,274.483 231.923,270.278 225.730 C 269.421 224.469,268.822 223.438,268.947 223.438 C 269.071 223.438,268.726 222.956,268.180 222.367 C 266.461 220.513,266.967 220.233,273.633 219.351 C 279.569 218.566,280.863 214.552,275.575 213.327 C 274.292 213.029,272.979 212.697,272.656 212.587 C 271.986 212.359,271.381 212.273,269.727 212.170 C 267.721 212.046,267.324 211.567,268.195 210.326 C 274.595 201.210,273.032 197.699,264.994 203.133 C 261.273 205.650,261.148 205.644,260.737 202.938 C 258.908 190.895,258.579 189.844,256.641 189.844 C 255.874 189.844,255.295 190.139,254.915 190.723 M125.391 193.194 C 120.469 195.351,120.117 196.612,120.117 212.109 C 120.117 226.619,120.141 226.763,122.913 229.360 C 125.625 231.899,126.880 232.215,134.766 232.350 L 141.992 232.474 148.658 239.089 C 157.792 248.152,158.594 248.091,158.594 238.330 L 158.594 232.520 159.763 232.286 C 162.069 231.825,165.481 227.706,166.609 224.023 C 167.139 222.294,166.789 204.804,166.185 202.767 C 165.862 201.680,165.619 200.672,165.646 200.528 C 165.673 200.383,165.412 200.107,165.066 199.913 C 164.720 199.720,164.539 199.396,164.663 199.195 C 164.788 198.993,164.700 198.828,164.468 198.828 C 164.236 198.828,163.837 198.370,163.581 197.809 C 163.326 197.249,162.055 196.113,160.758 195.284 C 159.460 194.456,158.216 193.640,157.993 193.471 C 157.137 192.824,156.034 192.771,141.602 192.684 C 128.978 192.608,126.553 192.684,125.391 193.194 M203.552 252.167 C 206.138 253.504,207.003 256.971,205.359 259.409 C 201.839 264.633,194.182 259.932,197.168 254.381 C 198.528 251.852,201.171 250.936,203.552 252.167 " stroke="none" fill="#05df72" fill-rule="evenodd"></path><path id="path2" d="" stroke="none" fill="#a4a49c" fill-rule="evenodd"></path><path id="path3" d="M199.232 28.881 C 199.010 29.296,198.842 29.867,198.859 30.150 C 198.876 30.433,199.066 30.181,199.282 29.590 C 199.757 28.290,200.677 28.194,201.160 29.395 C 201.376 29.934,201.523 30.039,201.538 29.668 C 201.597 28.223,199.895 27.642,199.232 28.881 M208.281 62.695 C 208.281 63.125,208.422 63.916,208.594 64.453 C 208.841 65.226,208.906 65.267,208.906 64.648 C 208.906 64.219,208.766 63.428,208.594 62.891 C 208.346 62.117,208.281 62.077,208.281 62.695 M210.279 71.875 C 210.345 72.768,210.518 72.856,212.305 72.909 C 213.379 72.940,213.818 72.891,213.281 72.799 C 211.029 72.415,210.594 72.231,210.406 71.582 C 210.291 71.187,210.238 71.312,210.279 71.875 M189.453 72.201 C 189.453 72.474,188.712 72.684,187.598 72.724 L 185.742 72.793 187.455 72.945 C 189.082 73.089,190.297 72.589,189.720 72.012 C 189.573 71.865,189.453 71.950,189.453 72.201 M183.691 73.316 C 184.067 73.414,184.683 73.414,185.059 73.316 C 185.435 73.218,185.127 73.138,184.375 73.138 C 183.623 73.138,183.315 73.218,183.691 73.316 M215.532 73.323 C 216.018 73.417,216.721 73.413,217.094 73.315 C 217.468 73.217,217.070 73.141,216.211 73.145 C 215.352 73.150,215.046 73.230,215.532 73.323 M180.566 73.707 C 180.942 73.805,181.558 73.805,181.934 73.707 C 182.310 73.609,182.002 73.528,181.250 73.528 C 180.498 73.528,180.190 73.609,180.566 73.707 M227.734 75.391 C 228.271 75.563,229.063 75.703,229.492 75.703 C 230.111 75.703,230.070 75.638,229.297 75.391 C 228.760 75.219,227.969 75.078,227.539 75.078 C 226.920 75.078,226.961 75.143,227.734 75.391 M232.813 76.563 C 234.148 76.990,235.175 76.990,234.180 76.563 C 233.750 76.378,233.047 76.232,232.617 76.238 C 231.989 76.247,232.027 76.311,232.813 76.563 M249.702 82.254 C 250.118 82.670,252.767 83.571,252.551 83.223 C 252.412 82.997,252.034 82.813,251.712 82.813 C 251.389 82.813,251.207 82.681,251.307 82.520 C 251.406 82.358,251.054 82.201,250.523 82.169 C 249.993 82.137,249.623 82.175,249.702 82.254 M253.158 83.744 C 253.555 84.111,260.547 87.487,260.547 87.313 C 260.547 87.096,253.688 83.594,253.263 83.594 C 253.115 83.594,253.068 83.661,253.158 83.744 M144.922 84.570 C 144.385 84.877,144.121 85.129,144.336 85.129 C 144.551 85.129,145.166 84.877,145.703 84.570 C 146.240 84.263,146.504 84.012,146.289 84.012 C 146.074 84.012,145.459 84.263,144.922 84.570 M141.309 86.353 C 140.073 86.991,139.063 87.600,139.063 87.707 C 139.063 87.814,140.117 87.369,141.406 86.719 C 142.695 86.068,143.750 85.450,143.750 85.346 C 143.750 85.086,143.822 85.056,141.309 86.353 M137.402 88.505 C 135.942 89.297,136.031 89.627,137.500 88.867 C 138.145 88.534,138.672 88.178,138.672 88.076 C 138.672 87.825,138.630 87.839,137.402 88.505 M261.719 88.062 C 261.719 88.172,262.217 88.519,262.826 88.834 C 263.759 89.316,263.932 89.321,263.932 88.861 C 263.932 88.561,263.789 88.404,263.615 88.512 C 263.440 88.620,262.942 88.518,262.508 88.286 C 262.074 88.053,261.719 87.953,261.719 88.062 M132.520 91.451 C 131.188 92.304,130.757 92.876,131.934 92.230 C 132.830 91.737,134.234 90.651,133.984 90.644 C 133.877 90.641,133.218 91.004,132.520 91.451 M268.750 92.309 C 268.750 92.400,269.497 92.967,270.410 93.569 C 271.323 94.171,271.864 94.414,271.612 94.109 C 271.127 93.523,268.750 92.027,268.750 92.309 M128.320 94.370 L 127.148 95.377 128.418 94.537 C 129.116 94.075,129.688 93.621,129.688 93.528 C 129.688 93.236,129.522 93.338,128.320 94.370 M273.438 95.435 C 273.438 95.531,274.083 96.103,274.872 96.704 C 275.660 97.306,276.182 97.599,276.032 97.355 C 275.723 96.855,273.438 95.163,273.438 95.435 M121.369 99.414 C 119.069 101.239,117.188 102.823,117.188 102.932 C 117.188 103.041,118.989 101.704,121.191 99.960 C 125.534 96.522,126.037 96.094,125.744 96.094 C 125.637 96.094,123.669 97.588,121.369 99.414 M282.422 102.466 C 282.422 102.533,282.993 103.104,283.691 103.736 L 284.961 104.883 283.814 103.613 C 282.744 102.430,282.422 102.164,282.422 102.466 M115.438 104.288 C 115.054 104.712,114.543 104.948,114.303 104.811 C 114.063 104.674,113.997 104.706,114.157 104.882 C 114.316 105.058,114.236 105.481,113.978 105.823 C 113.721 106.165,114.162 105.840,114.958 105.099 C 115.755 104.359,116.406 103.700,116.406 103.634 C 116.406 103.353,116.091 103.566,115.438 104.288 M289.844 109.570 C 292.307 112.041,294.411 114.063,294.519 114.063 C 294.626 114.063,292.698 112.041,290.234 109.570 C 287.771 107.100,285.667 105.078,285.560 105.078 C 285.452 105.078,287.380 107.100,289.844 109.570 M109.367 110.059 L 105.664 113.867 109.473 110.164 C 113.010 106.724,113.459 106.250,113.176 106.250 C 113.118 106.250,111.404 107.964,109.367 110.059 M103.686 116.113 L 102.539 117.383 103.809 116.236 C 104.507 115.604,105.078 115.033,105.078 114.966 C 105.078 114.664,104.756 114.930,103.686 116.113 M295.313 115.357 C 295.313 115.424,295.884 115.995,296.582 116.626 L 297.852 117.773 296.704 116.504 C 295.635 115.321,295.313 115.055,295.313 115.357 M101.527 118.652 C 99.853 120.518,99.091 121.484,99.292 121.484 C 99.399 121.484,100.228 120.605,101.134 119.531 C 102.876 117.466,103.159 116.832,101.527 118.652 M298.979 119.647 C 299.807 120.658,300.566 121.484,300.666 121.484 C 300.932 121.484,298.458 118.418,297.927 118.090 C 297.678 117.936,298.151 118.637,298.979 119.647 M144.173 119.672 C 144.263 119.749,144.863 119.930,145.508 120.074 C 146.364 120.266,146.522 120.229,146.094 119.940 C 145.566 119.583,143.781 119.334,144.173 119.672 M123.173 121.973 C 122.738 122.456,122.242 123.115,122.071 123.438 C 121.741 124.059,121.831 123.974,123.414 122.168 C 123.931 121.577,124.267 121.094,124.160 121.094 C 124.052 121.094,123.608 121.489,123.173 121.973 M279.018 121.992 C 279.494 122.487,279.955 122.839,280.043 122.776 C 280.271 122.613,278.850 121.094,278.469 121.094 C 278.295 121.094,278.542 121.498,279.018 121.992 M157.028 130.179 C 161.860 135.065,165.861 139.063,165.918 139.063 C 166.317 139.063,163.990 136.662,156.646 129.496 L 148.242 121.296 157.028 130.179 M272.754 123.482 C 271.422 124.335,270.992 124.908,272.168 124.261 C 273.064 123.768,274.468 122.683,274.219 122.675 C 274.111 122.672,273.452 123.035,272.754 123.482 M97.196 124.121 C 96.268 125.213,94.851 127.344,95.054 127.344 C 95.156 127.344,95.871 126.465,96.642 125.391 C 98.032 123.456,98.317 122.803,97.196 124.121 M215.039 124.465 C 215.254 124.653,216.132 125.422,216.991 126.173 L 218.553 127.539 217.382 126.236 C 216.738 125.519,215.859 124.751,215.430 124.528 C 215.000 124.305,214.824 124.277,215.039 124.465 M184.546 126.270 L 183.398 127.539 184.668 126.392 C 185.851 125.322,186.117 125.000,185.815 125.000 C 185.748 125.000,185.177 125.571,184.546 126.270 M144.922 127.148 C 145.651 127.900,146.335 128.516,146.442 128.516 C 146.550 128.516,146.041 127.900,145.313 127.148 C 144.584 126.396,143.899 125.781,143.792 125.781 C 143.685 125.781,144.193 126.396,144.922 127.148 M120.887 150.195 C 120.887 163.301,120.936 168.606,120.996 161.984 C 121.056 155.362,121.056 144.639,120.996 138.155 C 120.936 131.672,120.887 137.090,120.887 150.195 M219.531 129.297 C 219.990 129.941,220.454 130.469,220.561 130.469 C 220.668 130.469,220.381 129.941,219.922 129.297 C 219.463 128.652,219.000 128.125,218.892 128.125 C 218.785 128.125,219.072 128.652,219.531 129.297 M151.172 133.008 C 151.901 133.760,152.585 134.375,152.692 134.375 C 152.800 134.375,152.291 133.760,151.563 133.008 C 150.834 132.256,150.149 131.641,150.042 131.641 C 149.935 131.641,150.443 132.256,151.172 133.008 M156.055 137.891 C 156.894 138.750,157.668 139.453,157.776 139.453 C 157.883 139.453,157.284 138.750,156.445 137.891 C 155.606 137.031,154.832 136.328,154.724 136.328 C 154.617 136.328,155.216 137.031,156.055 137.891 M311.133 137.500 C 311.466 138.145,311.827 138.672,311.934 138.672 C 312.042 138.672,311.857 138.145,311.523 137.500 C 311.190 136.855,310.830 136.328,310.722 136.328 C 310.615 136.328,310.800 136.855,311.133 137.500 M251.367 138.120 L 250.195 139.127 251.465 138.287 C 252.163 137.825,252.734 137.371,252.734 137.278 C 252.734 136.986,252.569 137.088,251.367 138.120 M132.737 138.184 C 132.049 138.985,131.533 139.844,131.739 139.844 C 131.819 139.844,132.274 139.316,132.751 138.672 C 133.692 137.398,133.683 137.082,132.737 138.184 M178.216 139.844 C 178.216 140.596,178.296 140.903,178.394 140.527 C 178.493 140.151,178.493 139.536,178.394 139.160 C 178.296 138.784,178.216 139.092,178.216 139.844 M223.615 154.102 C 223.615 162.266,223.666 165.661,223.730 161.647 C 223.793 157.633,223.793 150.953,223.730 146.803 C 223.667 142.653,223.615 145.938,223.615 154.102 M313.753 142.370 C 314.438 143.760,315.064 144.832,315.142 144.754 C 315.317 144.579,312.955 139.844,312.693 139.844 C 312.591 139.844,313.068 140.981,313.753 142.370 M132.031 140.969 C 132.031 141.350,133.550 142.771,133.714 142.543 C 133.777 142.455,133.424 141.994,132.930 141.518 C 132.436 141.042,132.031 140.795,132.031 140.969 M144.783 141.203 C 144.654 141.540,144.149 141.976,143.661 142.172 C 143.089 142.402,142.995 142.537,143.396 142.553 C 144.071 142.580,145.572 141.145,145.228 140.801 C 145.113 140.686,144.913 140.867,144.783 141.203 M161.911 143.751 C 163.763 145.916,163.789 145.940,163.365 145.117 C 163.144 144.688,162.463 143.897,161.852 143.361 L 160.742 142.386 161.911 143.751 M274.442 144.364 C 274.298 144.936,274.256 145.480,274.348 145.572 C 274.440 145.664,274.633 145.271,274.777 144.699 C 274.920 144.126,274.963 143.582,274.871 143.490 C 274.779 143.398,274.586 143.791,274.442 144.364 M84.512 144.817 C 84.448 145.860,84.481 145.853,85.082 144.694 C 85.397 144.088,85.386 143.880,85.037 143.880 C 84.781 143.880,84.544 144.302,84.512 144.817 M170.013 146.484 C 170.013 147.236,170.093 147.544,170.191 147.168 C 170.289 146.792,170.289 146.177,170.191 145.801 C 170.093 145.425,170.013 145.732,170.013 146.484 M132.580 147.363 C 131.842 148.235,131.843 148.237,132.617 147.610 C 133.047 147.262,133.662 146.880,133.984 146.761 C 134.482 146.579,134.476 146.541,133.947 146.515 C 133.605 146.498,132.989 146.880,132.580 147.363 M81.704 151.384 C 81.050 152.820,81.174 153.127,81.882 151.821 C 82.213 151.211,82.410 150.639,82.321 150.550 C 82.231 150.460,81.954 150.836,81.704 151.384 M232.033 151.366 C 231.529 151.902,231.191 152.406,231.281 152.486 C 231.371 152.566,231.854 152.127,232.354 151.511 C 233.472 150.132,233.275 150.043,232.033 151.366 M244.141 153.906 C 243.336 154.164,243.302 154.225,243.945 154.252 C 244.375 154.270,244.990 154.115,245.313 153.906 C 245.997 153.464,245.522 153.464,244.141 153.906 M233.301 155.738 C 233.677 155.836,234.292 155.836,234.668 155.738 C 235.044 155.640,234.736 155.559,233.984 155.559 C 233.232 155.559,232.925 155.640,233.301 155.738 M133.458 156.543 C 133.358 156.704,136.380 156.791,140.173 156.736 C 152.910 156.551,154.174 156.413,143.871 156.331 C 138.244 156.286,133.558 156.382,133.458 156.543 M155.201 156.647 C 155.805 156.829,156.596 157.206,156.959 157.486 C 157.444 157.860,157.421 157.765,156.873 157.122 C 156.434 156.608,155.713 156.264,155.115 156.284 L 154.102 156.317 155.201 156.647 M171.894 158.810 C 172.851 159.895,173.712 160.724,173.809 160.651 C 173.906 160.579,173.124 159.691,172.071 158.678 L 170.156 156.836 171.894 158.810 M157.375 159.290 C 157.247 160.066,157.304 160.430,157.521 160.214 C 157.718 160.017,157.813 159.440,157.733 158.932 C 157.610 158.150,157.555 158.205,157.375 159.290 M178.286 166.211 C 178.287 170.078,178.345 171.607,178.416 169.609 C 178.487 167.611,178.487 164.447,178.416 162.578 C 178.344 160.709,178.286 162.344,178.286 166.211 M76.786 165.848 C 76.642 166.421,76.600 166.964,76.692 167.056 C 76.784 167.149,76.977 166.756,77.121 166.183 C 77.264 165.611,77.306 165.067,77.214 164.975 C 77.122 164.883,76.929 165.276,76.786 165.848 M323.102 166.016 C 323.102 166.338,323.253 166.953,323.438 167.383 C 323.649 167.875,323.773 167.947,323.773 167.578 C 323.773 167.256,323.622 166.641,323.438 166.211 C 323.226 165.719,323.102 165.646,323.102 166.016 M75.066 169.531 C 75.102 171.341,75.627 172.098,75.905 170.738 C 76.055 170.006,76.088 169.317,75.979 169.208 C 75.870 169.100,75.769 169.347,75.754 169.759 C 75.728 170.475,75.711 170.473,75.391 169.727 C 75.185 169.248,75.059 169.172,75.066 169.531 M223.588 173.828 C 223.588 176.514,223.650 177.612,223.727 176.270 C 223.803 174.927,223.803 172.729,223.727 171.387 C 223.650 170.044,223.588 171.143,223.588 173.828 M127.907 173.604 C 128.324 173.942,129.027 174.204,129.469 174.185 C 130.115 174.158,130.067 174.089,129.230 173.837 C 128.656 173.663,127.953 173.402,127.667 173.255 C 127.382 173.109,127.490 173.266,127.907 173.604 M228.948 175.145 C 228.632 175.525,228.535 179.007,228.613 187.157 L 228.723 198.633 228.815 187.090 C 228.881 178.739,229.036 175.417,229.375 175.078 C 229.633 174.820,229.742 174.609,229.618 174.609 C 229.494 174.609,229.193 174.850,228.948 175.145 M261.733 174.920 C 261.715 175.576,263.486 177.348,264.142 177.330 C 264.421 177.322,264.228 177.083,263.715 176.799 C 263.201 176.514,262.548 175.861,262.264 175.348 C 261.979 174.834,261.740 174.642,261.733 174.920 M122.850 177.673 C 123.276 178.176,123.978 178.769,124.410 178.990 C 125.239 179.415,125.119 179.284,123.245 177.729 C 122.117 176.792,122.103 176.790,122.850 177.673 M178.286 184.375 C 178.286 188.135,178.344 189.673,178.416 187.793 C 178.487 185.913,178.487 182.837,178.416 180.957 C 178.344 179.077,178.286 180.615,178.286 184.375 M132.910 180.370 C 136.079 180.436,141.265 180.436,144.434 180.370 C 147.603 180.305,145.010 180.251,138.672 180.251 C 132.334 180.251,129.741 180.305,132.910 180.370 M162.109 191.977 C 168.232 198.199,173.286 203.370,173.340 203.468 C 173.394 203.566,173.519 203.565,173.618 203.466 C 173.717 203.366,168.663 198.195,162.387 191.975 L 150.977 180.664 162.109 191.977 M72.852 185.156 C 72.699 186.472,72.657 187.631,72.758 187.732 C 72.860 187.834,73.065 186.838,73.214 185.519 C 73.364 184.200,73.405 183.041,73.307 182.943 C 73.209 182.845,73.004 183.841,72.852 185.156 M327.044 184.375 C 327.044 185.127,327.124 185.435,327.222 185.059 C 327.321 184.683,327.321 184.067,327.222 183.691 C 327.124 183.315,327.044 183.623,327.044 184.375 M223.536 185.742 C 223.540 186.602,223.620 186.907,223.714 186.421 C 223.807 185.935,223.804 185.232,223.706 184.859 C 223.608 184.485,223.532 184.883,223.536 185.742 M327.371 187.142 C 327.386 187.876,327.551 188.828,327.737 189.258 C 327.955 189.760,327.995 189.342,327.850 188.086 C 327.582 185.763,327.333 185.273,327.371 187.142 M333.594 191.016 C 334.893 191.431,335.938 191.475,335.937 191.113 C 335.937 190.952,335.190 190.794,334.277 190.762 C 332.942 190.716,332.809 190.766,333.594 191.016 M134.108 192.480 C 138.150 192.544,144.654 192.543,148.561 192.480 C 152.468 192.416,149.160 192.364,141.211 192.364 C 133.262 192.364,130.065 192.416,134.108 192.480 M178.271 196.289 C 178.272 198.652,178.336 199.569,178.414 198.326 C 178.492 197.082,178.491 195.149,178.412 194.029 C 178.334 192.909,178.270 193.926,178.271 196.289 M123.112 194.434 C 122.295 195.249,122.172 195.445,122.834 194.876 C 123.488 194.313,124.375 193.659,124.805 193.423 C 125.234 193.186,125.359 192.987,125.083 192.981 C 124.806 192.974,123.919 193.628,123.112 194.434 M357.227 195.703 C 358.879 196.124,360.297 196.124,358.984 195.703 C 358.447 195.531,357.568 195.394,357.031 195.398 C 356.154 195.404,356.174 195.435,357.227 195.703 M270.996 200.793 C 271.479 200.988,271.875 201.357,271.875 201.615 C 271.875 201.873,271.988 201.970,272.126 201.832 C 272.507 201.452,271.476 200.387,270.753 200.415 C 270.323 200.432,270.401 200.554,270.996 200.793 M260.638 201.953 C 260.638 202.705,260.718 203.013,260.816 202.637 C 260.914 202.261,260.914 201.646,260.816 201.270 C 260.718 200.894,260.638 201.201,260.638 201.953 M178.259 204.883 C 178.260 206.602,178.329 207.256,178.412 206.337 C 178.494 205.419,178.493 204.012,178.409 203.212 C 178.325 202.412,178.257 203.164,178.259 204.883 M166.965 214.063 C 166.965 219.111,167.021 221.177,167.089 218.652 C 167.157 216.128,167.157 211.997,167.089 209.473 C 167.021 206.948,166.965 209.014,166.965 214.063 M72.747 213.281 C 72.747 214.033,72.827 214.341,72.926 213.965 C 73.024 213.589,73.024 212.974,72.926 212.598 C 72.827 212.222,72.747 212.529,72.747 213.281 M327.044 214.453 C 327.044 215.205,327.124 215.513,327.222 215.137 C 327.321 214.761,327.321 214.146,327.222 213.770 C 327.124 213.394,327.044 213.701,327.044 214.453 M178.279 219.727 C 178.280 222.734,178.341 223.913,178.415 222.346 C 178.490 220.779,178.489 218.318,178.414 216.877 C 178.339 215.437,178.279 216.719,178.279 219.727 M73.138 216.016 C 73.138 216.768,73.218 217.075,73.316 216.699 C 73.414 216.323,73.414 215.708,73.316 215.332 C 73.218 214.956,73.138 215.264,73.138 216.016 M73.528 218.750 C 73.528 219.502,73.609 219.810,73.707 219.434 C 73.805 219.058,73.805 218.442,73.707 218.066 C 73.609 217.690,73.528 217.998,73.528 218.750 M165.131 227.444 L 164.442 228.711 165.229 227.789 C 165.898 227.004,166.256 226.166,165.918 226.174 C 165.864 226.176,165.510 226.747,165.131 227.444 M178.250 228.906 C 178.250 230.303,178.321 230.874,178.408 230.176 C 178.494 229.478,178.494 228.335,178.408 227.637 C 178.321 226.938,178.250 227.510,178.250 228.906 M162.870 230.371 L 161.523 231.836 162.988 230.490 C 164.352 229.237,164.633 228.906,164.334 228.906 C 164.269 228.906,163.610 229.565,162.870 230.371 M241.564 231.543 C 242.019 232.079,242.704 232.401,243.322 232.369 L 244.336 232.315 243.359 232.138 C 242.822 232.040,242.031 231.668,241.602 231.312 C 240.827 230.669,240.826 230.671,241.564 231.543 M268.168 232.037 C 268.298 232.249,268.952 232.422,269.619 232.422 C 271.095 232.422,270.946 232.227,269.219 231.898 C 268.413 231.745,268.019 231.797,268.168 232.037 M323.270 232.645 C 323.126 233.218,323.084 233.761,323.176 233.853 C 323.268 233.945,323.461 233.552,323.605 232.980 C 323.749 232.407,323.791 231.864,323.699 231.772 C 323.607 231.680,323.414 232.073,323.270 232.645 M147.266 238.086 C 149.945 240.771,152.225 242.969,152.332 242.969 C 152.439 242.969,150.335 240.771,147.656 238.086 C 144.977 235.400,142.697 233.203,142.590 233.203 C 142.482 233.203,144.587 235.400,147.266 238.086 M322.489 235.379 C 322.345 235.952,322.303 236.496,322.395 236.588 C 322.487 236.680,322.680 236.287,322.824 235.714 C 322.967 235.142,323.010 234.598,322.917 234.506 C 322.825 234.414,322.633 234.807,322.489 235.379 M77.789 237.109 C 77.789 237.432,77.940 238.047,78.125 238.477 C 78.337 238.969,78.461 239.041,78.461 238.672 C 78.461 238.350,78.310 237.734,78.125 237.305 C 77.913 236.812,77.789 236.740,77.789 237.109 M320.781 240.898 C 320.537 241.693,320.403 242.408,320.482 242.487 C 320.561 242.566,320.836 241.992,321.094 241.211 C 321.351 240.430,321.486 239.715,321.393 239.623 C 321.301 239.530,321.025 240.104,320.781 240.898 M78.811 241.338 C 78.689 241.806,78.748 242.090,78.943 241.970 C 79.137 241.849,79.297 241.966,79.297 242.230 C 79.297 242.493,79.389 242.617,79.501 242.505 C 79.613 242.393,79.553 241.893,79.369 241.394 L 79.033 240.487 78.811 241.338 M178.300 253.516 C 178.300 260.713,178.353 263.657,178.417 260.059 C 178.482 256.460,178.482 250.571,178.417 246.973 C 178.353 243.374,178.300 246.318,178.300 253.516 M153.998 244.677 C 155.590 246.223,156.476 246.419,157.640 245.486 C 158.373 244.899,158.369 244.893,157.545 245.291 C 156.214 245.934,155.607 245.795,154.017 244.482 L 152.539 243.260 153.998 244.677 M82.556 250.841 C 82.590 251.412,82.736 251.805,82.882 251.715 C 83.028 251.625,83.263 251.919,83.406 252.368 C 83.548 252.817,83.750 253.099,83.853 252.996 C 83.956 252.893,83.693 252.132,83.268 251.306 C 82.572 249.953,82.502 249.907,82.556 250.841 M315.890 253.338 C 314.973 255.263,315.102 255.590,316.061 253.772 C 316.497 252.946,316.784 252.201,316.700 252.116 C 316.615 252.032,316.251 252.582,315.890 253.338 M85.294 256.773 C 85.326 257.304,85.463 257.669,85.599 257.585 C 85.735 257.501,86.066 257.961,86.334 258.607 C 86.601 259.254,86.985 259.884,87.187 260.009 C 87.477 260.188,85.772 256.416,85.344 255.932 C 85.285 255.864,85.262 256.243,85.294 256.773 M313.650 258.104 C 312.768 259.864,312.780 260.038,313.691 258.675 C 314.164 257.968,314.469 257.308,314.370 257.209 C 314.271 257.109,313.947 257.512,313.650 258.104 M311.523 262.109 C 310.979 263.184,310.622 264.063,310.729 264.063 C 310.836 264.063,311.370 263.184,311.914 262.109 C 312.458 261.035,312.816 260.156,312.708 260.156 C 312.601 260.156,312.068 261.035,311.523 262.109 M88.049 262.560 C 87.868 262.853,87.942 262.905,88.263 262.707 C 88.621 262.486,88.688 262.616,88.507 263.184 C 88.325 263.759,88.466 264.020,89.041 264.170 C 89.785 264.365,89.795 264.319,89.238 263.242 C 88.587 261.983,88.453 261.907,88.049 262.560 M308.352 267.676 C 307.007 269.957,306.920 270.152,307.605 269.336 C 308.398 268.391,309.082 267.188,308.826 267.188 C 308.724 267.188,308.510 267.407,308.352 267.676 M304.688 273.242 C 304.022 274.209,303.566 275.000,303.673 275.000 C 303.781 275.000,304.413 274.209,305.078 273.242 C 305.743 272.275,306.200 271.484,306.092 271.484 C 305.985 271.484,305.353 272.275,304.688 273.242 M94.889 272.949 C 95.101 273.325,95.736 274.160,96.301 274.805 C 97.078 275.692,97.019 275.525,96.059 274.121 C 94.804 272.287,94.143 271.625,94.889 272.949 M302.124 276.825 C 301.522 277.613,301.230 278.135,301.473 277.985 C 301.974 277.676,303.665 275.391,303.393 275.391 C 303.297 275.391,302.726 276.036,302.124 276.825 M299.593 280.176 C 298.867 281.089,298.582 281.588,298.960 281.285 C 299.671 280.714,301.345 278.516,301.069 278.516 C 300.982 278.516,300.318 279.263,299.593 280.176 M103.068 283.594 C 104.366 285.205,106.571 287.653,107.968 289.033 C 109.366 290.413,110.417 291.691,110.304 291.874 C 110.191 292.057,110.331 292.159,110.615 292.100 C 110.902 292.040,111.075 292.254,111.003 292.578 C 110.931 292.900,111.009 293.028,111.175 292.862 C 111.341 292.695,112.366 293.398,113.452 294.424 C 114.539 295.450,113.048 293.828,110.140 290.820 C 107.231 287.813,103.920 284.297,102.780 283.008 C 100.894 280.873,100.919 280.925,103.068 283.594 M189.844 283.004 C 189.844 283.271,192.236 284.457,192.414 284.279 C 192.499 284.194,191.955 283.832,191.206 283.475 C 190.457 283.117,189.844 282.906,189.844 283.004 M294.127 286.621 L 291.992 288.867 294.238 286.732 C 296.325 284.749,296.663 284.375,296.373 284.375 C 296.312 284.375,295.302 285.386,294.127 286.621 M199.512 285.829 C 200.210 285.916,201.353 285.916,202.051 285.829 C 202.749 285.743,202.178 285.672,200.781 285.672 C 199.385 285.672,198.813 285.743,199.512 285.829 M285.938 294.727 C 284.989 295.693,284.300 296.484,284.408 296.484 C 284.515 296.484,285.379 295.693,286.328 294.727 C 287.277 293.760,287.965 292.969,287.858 292.969 C 287.751 292.969,286.886 293.760,285.938 294.727 M115.625 296.330 C 115.625 296.461,116.066 296.914,116.605 297.338 C 117.144 297.762,117.469 298.298,117.326 298.529 C 117.166 298.788,117.252 298.834,117.550 298.650 C 117.900 298.434,117.736 298.042,116.951 297.223 C 115.841 296.064,115.625 295.919,115.625 296.330 M282.593 297.754 L 281.445 299.023 282.715 297.876 C 283.413 297.245,283.984 296.674,283.984 296.607 C 283.984 296.305,283.662 296.571,282.593 297.754 M120.843 300.692 C 121.152 301.192,123.438 302.883,123.438 302.612 C 123.438 302.515,122.792 301.944,122.003 301.343 C 121.215 300.741,120.693 300.448,120.843 300.692 M275.781 303.173 C 274.420 304.366,274.419 304.368,275.672 303.535 C 276.364 303.074,277.033 302.530,277.160 302.326 C 277.536 301.716,277.224 301.908,275.781 303.173 M127.435 305.557 C 128.595 306.543,130.859 307.956,130.859 307.695 C 130.859 307.605,129.849 306.884,128.613 306.091 C 127.378 305.298,126.848 305.058,127.435 305.557 M263.184 311.161 C 261.723 311.953,261.812 312.283,263.281 311.523 C 263.926 311.190,264.453 310.834,264.453 310.732 C 264.453 310.481,264.411 310.495,263.184 311.161 M136.328 311.117 C 136.328 311.224,137.031 311.671,137.891 312.109 C 138.750 312.548,139.453 312.819,139.453 312.711 C 139.453 312.604,138.750 312.157,137.891 311.719 C 137.031 311.280,136.328 311.010,136.328 311.117 M257.422 314.258 C 255.596 315.203,254.237 315.985,254.403 315.996 C 254.818 316.023,260.938 312.928,260.938 312.691 C 260.938 312.426,261.103 312.352,257.422 314.258 M252.344 316.602 C 251.807 316.909,251.543 317.160,251.758 317.160 C 251.973 317.160,252.588 316.909,253.125 316.602 C 253.662 316.295,253.926 316.043,253.711 316.043 C 253.496 316.043,252.881 316.295,252.344 316.602 M147.656 316.992 C 148.193 317.299,148.809 317.550,149.023 317.550 C 149.238 317.550,148.975 317.299,148.438 316.992 C 147.900 316.685,147.285 316.434,147.070 316.434 C 146.855 316.434,147.119 316.685,147.656 316.992 M152.148 318.831 C 152.578 319.078,153.162 319.556,153.447 319.894 C 153.731 320.231,153.853 320.288,153.717 320.020 C 153.398 319.391,153.628 319.405,155.334 320.117 C 156.105 320.439,156.934 320.693,157.177 320.680 C 157.419 320.668,156.302 320.140,154.694 319.508 C 151.598 318.292,150.870 318.098,152.148 318.831 M160.742 321.875 C 161.172 322.060,161.787 322.211,162.109 322.211 C 162.479 322.211,162.406 322.087,161.914 321.875 C 161.484 321.690,160.869 321.539,160.547 321.539 C 160.178 321.539,160.250 321.663,160.742 321.875 M234.180 323.047 C 233.687 323.258,233.615 323.383,233.984 323.383 C 234.307 323.383,234.922 323.232,235.352 323.047 C 235.844 322.835,235.916 322.711,235.547 322.711 C 235.225 322.711,234.609 322.862,234.180 323.047 M218.066 326.441 C 218.442 326.539,219.058 326.539,219.434 326.441 C 219.810 326.343,219.502 326.263,218.750 326.263 C 217.998 326.263,217.690 326.343,218.066 326.441 M183.691 326.832 C 184.067 326.930,184.683 326.930,185.059 326.832 C 185.435 326.734,185.127 326.653,184.375 326.653 C 183.623 326.653,183.315 326.734,183.691 326.832 M214.941 326.832 C 215.317 326.930,215.933 326.930,216.309 326.832 C 216.685 326.734,216.377 326.653,215.625 326.653 C 214.873 326.653,214.565 326.734,214.941 326.832 M187.207 327.222 C 187.583 327.321,188.198 327.321,188.574 327.222 C 188.950 327.124,188.643 327.044,187.891 327.044 C 187.139 327.044,186.831 327.124,187.207 327.222 M211.626 327.229 C 212.112 327.323,212.815 327.319,213.188 327.222 C 213.562 327.124,213.164 327.047,212.305 327.052 C 211.445 327.056,211.140 327.136,211.626 327.229 M209.201 331.467 C 209.054 332.251,209.012 332.970,209.108 333.066 C 209.203 333.161,209.402 332.598,209.549 331.814 C 209.696 331.030,209.738 330.311,209.642 330.215 C 209.547 330.120,209.348 330.683,209.201 331.467 M195.390 354.102 C 195.390 354.531,195.531 355.322,195.703 355.859 C 195.951 356.633,196.016 356.673,196.016 356.055 C 196.016 355.625,195.875 354.834,195.703 354.297 C 195.455 353.524,195.390 353.483,195.390 354.102 M198.582 369.727 C 198.631 371.238,200.277 372.226,200.944 371.146 C 201.048 370.978,200.765 370.854,200.315 370.870 C 199.722 370.891,199.365 370.524,199.015 369.531 L 198.532 368.164 198.582 369.727 " stroke="none" fill="#6c746c" fill-rule="evenodd"></path><path id="path4" d="" stroke="none" fill="#bcd4100" fill-rule="evenodd"></path></g></svg>